<svg width="1344" height="256" viewBox="0 0 1344 256" fill="none" xmlns="http://www.w3.org/2000/svg">
<g clip-path="url(#clip0_746_31807)">
<path d="M1086.05 159.881C1086.05 187.7 1064.13 205.346 1029.23 205.346H978.167L1003.94 59.6382H1052.43C1076.18 59.6382 1091.6 73.0366 1091.6 93.3181C1091.6 111.189 1080.84 125.18 1063.19 130.266C1077.12 134.106 1086.05 145.298 1086.05 159.881ZM1047.9 77.4891H1021.51L1013.81 121.34H1040.36C1059.64 121.34 1070.38 111.986 1070.38 95.769C1070.4 84.1884 1062.5 77.4891 1047.9 77.4891ZM1039.56 138.987H1010.74L1002.02 187.495H1030.84C1051.55 187.495 1064.52 176.732 1064.52 159.677C1064.52 146.891 1055.19 138.987 1039.56 138.987ZM1196.26 186.474L1193.01 205.346H1104.33L1130.08 59.6382H1217.36L1214.11 78.5104H1148.36L1140.85 120.932H1200.71L1197.46 139.6H1137.6L1129.08 186.576L1196.26 186.474ZM1273.44 205.346H1251.94L1274.06 79.3274H1228.59L1231.84 59.6382H1344.48L1341.23 79.3274H1295.67L1273.44 205.346Z" fill="#71EC6F"/>
<path d="M446.192 159.086C446.192 187.496 422.051 205.347 383.489 205.347H325.239L351.014 59.639H407.427C433.815 59.639 451.462 74.0382 451.462 95.7698C451.462 111.395 441.719 124.364 425.686 130.062C431.759 132.071 437.028 135.973 440.719 141.197C444.409 146.421 446.328 152.691 446.192 159.086ZM399.522 89.6425H381.447L376.79 114.989H394.947C408.142 114.989 415.372 110.128 415.372 100.998C415.372 93.5231 410.062 89.6833 399.522 89.6833V89.6425ZM391.189 145.034H371.521L366.026 175.262H385.716C400.523 175.262 409.469 168.971 409.469 158.636C409.469 149.935 402.974 145.074 391.189 145.074V145.034ZM554.421 205.306H458.018L483.794 59.5981H520.925L500.848 171.626H560.385L554.421 205.306ZM670.698 205.306L666.838 177.713H617.104L603.277 205.347H563.735L641.879 59.639H682.462L708.238 205.347L670.698 205.306ZM655.87 100.59L631.871 148.322H662.508L655.87 100.59ZM832.562 205.306H717.654L722.923 175.466L802.272 91.7258H737.179L742.653 59.6594H856.54L851.27 89.8876L772.085 173.281H838.158L832.562 205.306ZM960.092 173.24L954.414 205.306H854.783L880.539 59.5981H978.964L973.49 91.6645H912.013L907.928 114.397H963.523L957.845 146.463H902.27L897.389 173.281L960.092 173.24Z" fill="white"/>
<path fill-rule="evenodd" clip-rule="evenodd" d="M255.367 115.072L245.155 112.233C204.378 100.79 169.678 73.8806 148.445 37.2346L142.747 47.0792C124.794 78.0813 99.0902 103.884 68.157 121.955L58.4962 127.633L68.157 133.291C99.0977 151.359 124.809 177.162 142.767 208.167L148.466 218.032C169.696 181.38 204.396 154.463 245.176 143.013L255.388 140.153C252.168 172.834 236.504 203.026 211.637 224.475C186.771 245.924 154.608 256.989 121.808 255.377C89.0083 253.765 58.0848 239.601 35.4409 215.817C12.7971 192.033 0.16748 160.452 0.16748 127.613C0.16748 94.7736 12.7971 63.1922 35.4409 39.4084C58.0848 15.6246 89.0083 1.46027 121.808 -0.15139C154.608 -1.76305 186.771 9.30142 211.637 30.7507C236.504 52.2001 252.168 82.3912 255.388 115.072H255.367Z" fill="#71EC6F"/>
</g>
<defs>
<clipPath id="clip0_746_31807">
<rect width="1344" height="256" fill="white"/>
</clipPath>
</defs>
</svg>
