<svg width="326" height="256" viewBox="0 0 326 256" fill="none" xmlns="http://www.w3.org/2000/svg">
<g clip-path="url(#clip0_746_31811)">
<mask id="mask0_746_31811" style="mask-type:luminance" maskUnits="userSpaceOnUse" x="0" y="0" width="326" height="256">
<path d="M326 0H0V256H326V0Z" fill="white"/>
</mask>
<g mask="url(#mask0_746_31811)">
<path d="M276.44 124.082C307.216 115.161 326 90.5697 326 59.1903C326 23.5442 299.105 0 257.656 0H185.742C192.671 2.91416 199.132 6.83528 204.914 11.6364C211.67 17.1233 217.264 23.901 221.369 31.5733H249.739C275.237 31.5733 289.014 43.2097 288.975 63.6897C288.975 92.16 270.23 108.606 236.582 108.606H212.404C207.094 114.77 200.799 120.012 193.776 124.121C199.59 128.156 204.659 133.169 208.756 138.938L209.144 139.52H235.302C262.468 139.52 278.885 153.406 278.885 175.903C278.885 205.847 256.22 224.776 220.088 224.776H203.323C198.656 230.656 193.212 235.876 187.139 240.291C177.62 247.095 167.073 252.333 155.897 255.806H217.294C278.186 255.806 316.414 224.776 316.414 175.942C316.645 164.043 312.811 152.42 305.543 142.993C298.276 133.565 288.01 126.895 276.44 124.082Z" fill="#71EC6F"/>
<path d="M199.326 139.404C195.073 134.432 189.926 130.301 184.151 127.224L177.437 123.617L184.267 120.281C190.654 117.226 196.541 113.224 201.732 108.412C207.951 102.715 212.895 95.7683 216.239 88.0274C219.584 80.2865 221.252 71.9266 221.136 63.4956C221.313 52.1657 218.243 41.0215 212.288 31.3791C208.936 26.0922 204.756 21.3776 199.908 17.4155C191.789 10.9387 182.402 6.23467 172.353 3.60703C163.103 1.12823 153.559 -0.0852283 143.983 -0.000219275H45.1353L-0.0390625 256H102.069C110.857 256.028 119.636 255.444 128.343 254.254C147.738 252.132 166.295 245.198 182.327 234.085C186.156 231.293 189.704 228.137 192.922 224.659C205.506 211.134 212.327 193.243 211.939 174.778C212.22 163.534 208.858 152.5 202.353 143.321C201.421 142.157 200.373 140.645 199.326 139.404ZM139.093 193.357C138.273 194.072 137.418 194.745 136.532 195.374C127.362 200.97 116.718 203.673 105.989 203.132H71.4869L81.1117 149.993H115.575C123.958 149.479 132.288 151.638 139.365 156.16C141.471 157.716 143.24 159.682 144.565 161.939C146.684 165.528 147.747 169.643 147.631 173.808C147.727 177.493 147.011 181.153 145.536 184.531C144.061 187.909 141.861 190.922 139.093 193.357ZM148.757 90.9962C142.664 95.1465 133.699 97.2411 122.172 97.2411H90.3484L98.4984 52.7126H130.206C137.487 52.2332 144.742 53.9782 151.008 57.7162C153.313 59.426 155.156 61.6835 156.368 64.2842C157.581 66.8849 158.126 69.7467 157.955 72.6108C158.132 76.2068 157.379 79.7881 155.767 83.0086C154.156 86.2292 151.742 88.98 148.757 90.9962Z" fill="white"/>
</g>
</g>
<defs>
<clipPath id="clip0_746_31811">
<rect width="326" height="256" fill="white"/>
</clipPath>
</defs>
</svg>
