<svg width="256" height="256" viewBox="0 0 256 256" fill="none" xmlns="http://www.w3.org/2000/svg">
<g clip-path="url(#clip0_1850_1078)">
<path fill-rule="evenodd" clip-rule="evenodd" d="M255.367 115.072L245.155 112.233C204.378 100.79 169.678 73.8806 148.445 37.2346L142.747 47.0792C124.794 78.0813 99.0902 103.884 68.157 121.955L58.4962 127.633L68.157 133.291C99.0977 151.359 124.809 177.162 142.767 208.167L148.466 218.032C169.696 181.38 204.396 154.463 245.176 143.013L255.388 140.153C252.168 172.834 236.504 203.026 211.637 224.475C186.771 245.924 154.608 256.989 121.808 255.377C89.0083 253.765 58.0848 239.601 35.4409 215.817C12.7971 192.033 0.16748 160.452 0.16748 127.613C0.16748 94.7736 12.7971 63.1922 35.4409 39.4084C58.0848 15.6246 89.0083 1.46027 121.808 -0.15139C154.608 -1.76305 186.771 9.30142 211.637 30.7507C236.504 52.2001 252.168 82.3912 255.388 115.072H255.367Z" fill="#71EC6F"/>
</g>
<defs>
<clipPath id="clip0_1850_1078">
<rect width="256" height="256" fill="white"/>
</clipPath>
</defs>
</svg>
