<svg width="0" height="0" class="hidden">
    <symbol xmlns="http://www.w3.org/2000/svg" viewBox="0 0 512 512" id="flag_cz">
        <path fill="#eee" d="M0 0h512v256l-265 45.2z"></path>
        <path fill="#d80027" d="M210 256h302v256H0z"></path>
        <path fill="#0052b4" d="M0 0v512l256-256L0 0z"></path>
    </symbol>
    <symbol xmlns="http://www.w3.org/2000/svg" viewBox="0 0 512 512" id="flag_de">
        <path fill="#ffda44" d="m0 345 256.7-25.5L512 345v167H0z"></path>
        <path fill="#d80027" d="m0 167 255-23 257 23v178H0z"></path>
        <path fill="#333" d="M0 0h512v167H0z"></path>
    </symbol>
    <symbol xmlns="http://www.w3.org/2000/svg" viewBox="0 0 512 512" id="flag_dk">
        <path fill="#d80027" d="M0 0h133.6l32.7 20.3 34-20.3H512v222.6L491.4 256l20.6 33.4V512H200.3l-31.7-20.4-35 20.4H0V289.4l29.4-33L0 222.7z"></path>
        <path fill="#eee" d="M133.6 0v222.6H0v66.8h133.6V512h66.7V289.4H512v-66.8H200.3V0h-66.7z"></path>
    </symbol>
    <symbol xmlns="http://www.w3.org/2000/svg" viewBox="0 0 512 512" id="flag_ee">
        <path fill="#333" d="m0 167 254.6-36.6L512 166.9v178l-254.6 36.4L0 344.9z"></path>
        <path fill="#0052b4" d="M0 0h512v166.9H0z"></path>
        <path fill="#eee" d="M0 344.9h512V512H0z"></path>
    </symbol>
    <symbol xmlns="http://www.w3.org/2000/svg" viewBox="0 0 512 512" id="flag_en">
        <path fill="#eee" d="m0 0 8 22-8 23v23l32 54-32 54v32l32 48-32 48v32l32 54-32 54v68l22-8 23 8h23l54-32 54 32h32l48-32 48 32h32l54-32 54 32h68l-8-22 8-23v-23l-32-54 32-54v-32l-32-48 32-48v-32l-32-54 32-54V0l-22 8-23-8h-23l-54 32-54-32h-32l-48 32-48-32h-32l-54 32L68 0H0z"></path>
        <path fill="#0052b4" d="M336 0v108L444 0Zm176 68L404 176h108zM0 176h108L0 68ZM68 0l108 108V0Zm108 512V404L68 512ZM0 444l108-108H0Zm512-108H404l108 108Zm-68 176L336 404v108z"></path>
        <path fill="#d80027" d="M0 0v45l131 131h45L0 0zm208 0v208H0v96h208v208h96V304h208v-96H304V0h-96zm259 0L336 131v45L512 0h-45zM176 336 0 512h45l131-131v-45zm160 0 176 176v-45L381 336h-45z"></path>
    </symbol>
    <symbol xmlns="http://www.w3.org/2000/svg" viewBox="0 0 512 512" id="flag_es">
        <clipPath id="a">
            <path d="M160 272v24a24 24 0 0 0 24 24 24 24 0 0 0 24-24v-24h-24z"></path>
        </clipPath>
        <path fill="#ffda44" d="m0 128 256-32 256 32v256l-256 32L0 384Z"></path>
        <path fill="#d80027" d="M0 0h512v128H0zm0 384h512v128H0z"></path>
        <g fill="#eee">
            <path d="M144 304h-16v-80h16zm128 0h16v-80h-16z"></path>
            <ellipse cx="208" cy="296" rx="48" ry="32"></ellipse>
        </g>
        <g fill="#d80027">
            <rect width="16" height="24" x="128" y="192" rx="8"></rect>
            <rect width="16" height="24" x="272" y="192" rx="8"></rect>
            <path d="M208 272v24a24 24 0 0 0 24 24 24 24 0 0 0 24-24v-24h-24z"></path>
        </g>
        <g fill="#ff9811">
            <rect width="32" height="16" x="120" y="208" ry="8"></rect>
            <rect width="32" height="16" x="264" y="208" ry="8"></rect>
            <rect width="32" height="16" x="120" y="304" rx="8"></rect>
            <rect width="32" height="16" x="264" y="304" rx="8"></rect>
            <path d="M160 272v24a24 24 0 0 0 24 24 24 24 0 0 0 24-24v-24h-24z"></path>
        </g>
        <path d="M122 252h172m-172 24h28m116 0h28"></path>
        <path fill="#d80027" d="M122 248a4 4 0 0 0-4 4 4 4 0 0 0 4 4h172a4 4 0 0 0 4-4 4 4 0 0 0-4-4zm0 24a4 4 0 0 0-4 4 4 4 0 0 0 4 4h28a4 4 0 0 0 4-4 4 4 0 0 0-4-4zm144 0a4 4 0 0 0-4 4 4 4 0 0 0 4 4h28a4 4 0 0 0 4-4 4 4 0 0 0-4-4z"></path>
        <path fill="#eee" d="M196 168c-7 0-13 5-15 11l-5-1c-9 0-16 7-16 16s7 16 16 16c7 0 13-4 15-11a16 16 0 0 0 17-4 16 16 0 0 0 17 4 16 16 0 1 0 10-20 16 16 0 0 0-27-5c-3-4-7-6-12-6zm0 8c5 0 8 4 8 8 0 5-3 8-8 8-4 0-8-3-8-8 0-4 4-8 8-8zm24 0c5 0 8 4 8 8 0 5-3 8-8 8-4 0-8-3-8-8 0-4 4-8 8-8zm-44 10 4 1 4 8c0 4-4 7-8 7s-8-3-8-8c0-4 4-8 8-8zm64 0c5 0 8 4 8 8 0 5-3 8-8 8-4 0-8-3-8-7l4-8z"></path>
        <path fill="none" d="M220 284v12c0 7 5 12 12 12s12-5 12-12v-12z"></path>
        <path fill="#ff9811" d="M200 160h16v32h-16z"></path>
        <path fill="#eee" d="M208 224h48v48h-48z"></path>
        <g fill="#d80027">
            <path d="m248 208-8 8h-64l-8-8c0-13 18-24 40-24s40 11 40 24zm-88 16h48v48h-48z"></path>
            <rect width="20" height="32" x="222" y="232" rx="10" ry="10"></rect>
            <g clip-path="url(#a)">
                <path d="M170 272h10v48h-10zm19 0h10v48h-10z"></path>
            </g>
        </g>
        <path fill="#ff9811" d="M168 232v8h8v16h-8v8h32v-8h-8v-16h8v-8zm8-16h64v8h-64z"></path>
        <g fill="#ffda44">
            <circle cx="186" cy="202" r="6"></circle>
            <circle cx="208" cy="202" r="6"></circle>
            <circle cx="230" cy="202" r="6"></circle>
        </g>
        <g fill="#338af3">
            <circle cx="208" cy="272" r="16"></circle>
            <rect width="32" height="16" x="264" y="320" ry="8"></rect>
            <rect width="32" height="16" x="120" y="320" ry="8"></rect>
        </g>
    </symbol>
    <symbol xmlns="http://www.w3.org/2000/svg" viewBox="0 0 512 512" id="flag_gr">
        <path fill="#0052b4" d="M0 0h99l29 32 28-32h356v57l-32 28 32 29v57l-32 28 32 29v57l-32 28 32 28v57l-32 29 32 28v57H0v-57l32-28-32-29v-56l32-29-32-28V171l32-29-32-28Z"></path>
        <path fill="#eee" d="M99 0v114H0v57h99v114H0v57h512v-57H156V171h100v-57H156V0Zm157 57v57h256V57Zm0 114v57h256v-57ZM0 398v57h512v-57z"></path>
    </symbol>
    <symbol xmlns="http://www.w3.org/2000/svg" viewBox="0 0 512 512" id="flag_hu">
        <path fill="#eee" d="m0 167 253.8-19.3L512 167v178l-254.9 32.3L0 345z"></path>
        <path fill="#d80027" d="M0 0h512v167H0z"></path>
        <path fill="#6da544" d="M0 345h512v167H0z"></path>
    </symbol>
    <symbol xmlns="http://www.w3.org/2000/svg" viewBox="0 0 512 512" id="flag_jp">
        <path fill="#eee" d="M0 0h512v512H0z"></path>
        <circle cx="256" cy="256" r="111.3" fill="#d80027"></circle>
    </symbol>
    <symbol xmlns="http://www.w3.org/2000/svg" viewBox="0 0 512 512" id="flag_lt">
        <path fill="#6da544" d="m0 167 253.8-19.3L512 167v178l-254.9 32.3L0 345z"></path>
        <path fill="#ffda44" d="M0 0h512v167H0z"></path>
        <path fill="#d80027" d="M0 345h512v167H0z"></path>
    </symbol>
    <symbol xmlns="http://www.w3.org/2000/svg" viewBox="0 0 512 512" id="flag_lv">
        <path fill="#a2001d" d="M0 0h512v189.2l-38.5 70 38.5 63.6V512H0V322.8l39.4-63L0 189.1z"></path>
        <path fill="#eee" d="M0 189.2h512v133.6H0z"></path>
    </symbol>
    <symbol xmlns="http://www.w3.org/2000/svg" viewBox="0 0 512 512" id="flag_no">
        <path fill="#d80027" d="M0 0h100.2l66.1 53.5L233.7 0H512v189.3L466.3 257l45.7 65.8V512H233.7l-68-50.7-65.5 50.7H0V322.8l51.4-68.5-51.4-65z"></path>
        <path fill="#eee" d="M100.2 0v189.3H0v33.4l24.6 33L0 289.5v33.4h100.2V512h33.4l30.6-26.3 36.1 26.3h33.4V322.8H512v-33.4l-24.6-33.7 24.6-33v-33.4H233.7V0h-33.4l-33.8 25.3L133.6 0z"></path>
        <path fill="#0052b4" d="M133.6 0v222.7H0v66.7h133.6V512h66.7V289.4H512v-66.7H200.3V0z"></path>
    </symbol>
    <symbol xmlns="http://www.w3.org/2000/svg" viewBox="0 0 512 512" id="flag_ph">
        <path fill="#0052b4" d="M0 0h512v256l-265 45.2z"></path>
        <path fill="#d80027" d="M210 256h302v256H0z"></path>
        <path fill="#eee" d="M0 0v512l256-256z"></path>
        <path fill="#ffda44" d="M175.3 256 144 241.3l16.7-30.3-34 6.5-4.3-34.3-23.6 25.2L75 183.2l-4.3 34.3-34-6.5 16.7 30.3L22.3 256l31.2 14.7L37 301l34-6.5 4.2 34.3 23.7-25.2 23.6 25.2 4.3-34.3 34 6.5-16.7-30.3zm-107-155.8 10.4 14.5 17-5.4-10.6 14.4 10.4 14.5-17-5.6L68 147l.2-17.9-17-5.6 17-5.4zm0 264.8 10.4 14.6 17-5.4-10.6 14.3 10.4 14.6-17-5.7L68 411.8l.2-17.9-17-5.6 17-5.4zm148.4-132.4L206.3 247l-17-5.4 10.5 14.4-10.4 14.6 17-5.7 10.6 14.4-.1-17.9 17-5.6-17.1-5.4z"></path>
    </symbol>
    <symbol xmlns="http://www.w3.org/2000/svg" viewBox="0 0 512 512" id="flag_pl">
        <path fill="#d80027" d="m0 256 256.4-44.3L512 256v256H0z"></path>
        <path fill="#eee" d="M0 0h512v256H0z"></path>
    </symbol>
    <symbol xmlns="http://www.w3.org/2000/svg" viewBox="0 0 512 512" id="flag_pt">
        <path fill="#6da544" d="M0 512h167l37.9-260.3L167 0H0z"></path>
        <path fill="#d80027" d="M512 0H167v512h345z"></path>
        <circle cx="167" cy="256" r="89" fill="#ffda44"></circle>
        <path fill="#d80027" d="M116.9 211.5V267a50 50 0 1 0 100.1 0v-55.6H117z"></path>
        <path fill="#eee" d="M167 283.8c-9.2 0-16.7-7.5-16.7-16.7V245h33.4v22c0 9.2-7.5 16.7-16.7 16.7z"></path>
    </symbol>
    <symbol xmlns="http://www.w3.org/2000/svg" viewBox="0 0 512 512" id="flag_ru">
        <path fill="#0052b4" d="m0 167 253.8-19.3L512 167v178l-254.9 32.3L0 345z"></path>
        <path fill="#eee" d="M0 0h512v167H0z"></path>
        <path fill="#d80027" d="M0 345h512v167H0z"></path>
    </symbol>
    <symbol xmlns="http://www.w3.org/2000/svg" viewBox="0 0 512 512" id="flag_ro">
        <path fill="#ffda44" d="M167 0h178l25.9 252.3L345 512H167l-29.8-253.4z"></path>
        <path fill="#0052b4" d="M0 0h167v512H0z"></path>
        <path fill="#d80027" d="M345 0h167v512H345z"></path>
    </symbol>
    <symbol xmlns="http://www.w3.org/2000/svg" viewBox="0 0 512 512" id="flag_th">
        <path fill="#d80027" d="M0 0h512v89l-79.2 163.7L512 423v89H0v-89l82.7-169.6L0 89z"></path>
        <path fill="#eee" d="M0 89h512v78l-42.6 91.2L512 345v78H0v-78l40-92.5L0 167z"></path>
        <path fill="#0052b4" d="M0 167h512v178H0z"></path>
    </symbol>
    <symbol xmlns="http://www.w3.org/2000/svg" viewBox="0 0 512 512" id="flag_ua">
        <path fill="#ffda44" d="m0 256 258-39.4L512 256v256H0z"></path>
        <path fill="#338af3" d="M0 0h512v256H0z"></path>
    </symbol>
    <symbol xmlns="http://www.w3.org/2000/svg" viewBox="0 0 512 512" id="flag_vn">
        <path fill="#d80027" d="M0 0h512v512H0z"></path>
        <path fill="#ffda44" d="m256 133.6 27.6 85H373L300.7 271l27.6 85-72.3-52.5-72.3 52.6 27.6-85-72.3-52.6h89.4z"></path>
    </symbol>
    <symbol xmlns="http://www.w3.org/2000/svg" viewBox="0 0 512 512" id="flag_ru">
        <mask id="a">
            <circle cx="256" cy="256" r="256" fill="#fff"></circle>
        </mask>
        <g mask="url(#a)">
            <path fill="#0052b4" d="m0 167 253.8-19.3L512 167v178l-254.9 32.3L0 345z"></path>
            <path fill="#eee" d="M0 0h512v167H0z"></path>
            <path fill="#d80027" d="M0 345h512v167H0z"></path>
        </g>
    </symbol>
    <symbol xmlns="http://www.w3.org/2000/svg" viewBox="0 0 512 512" id="flag_fi">
        <path fill="#eee" d="M0 0h133.6l35.3 16.7L200.3 0H512v222.6l-22.6 31.7 22.6 35.1V512H200.3l-32-19.8-34.7 19.8H0V289.4l22.1-33.3L0 222.6z"></path>
        <path fill="#0052b4" d="M133.6 0v222.6H0v66.8h133.6V512h66.7V289.4H512v-66.8H200.3V0h-66.7z"></path>
    </symbol>
    <symbol xmlns="http://www.w3.org/2000/svg" viewBox="0 0 512 512" id="flag_fr">
        <mask id="a">
            <circle cx="256" cy="256" r="256" fill="#fff"></circle>
        </mask>
        <g mask="url(#a)">
            <path fill="#eee" d="M167 0h178l25.9 252.3L345 512H167l-29.8-253.4z"></path>
            <path fill="#0052b4" d="M0 0h167v512H0z"></path>
            <path fill="#d80027" d="M345 0h167v512H345z"></path>
        </g>
    </symbol>
    <symbol xmlns="http://www.w3.org/2000/svg" viewBox="0 0 512 512" id="flag_in">
        <path fill="#eee" d="m0 160 256-32 256 32v192l-256 32L0 352z"></path>
        <path fill="#ff9811" d="M0 0h512v160H0Z"></path>
        <path fill="#6da544" d="M0 352h512v160H0Z"></path>
        <circle cx="256" cy="256" r="72" fill="#0052b4"></circle>
        <circle cx="256" cy="256" r="48" fill="#eee"></circle>
        <circle cx="256" cy="256" r="24" fill="#0052b4"></circle>
    </symbol>
    <symbol xmlns="http://www.w3.org/2000/svg" viewBox="0 0 512 512" id="flag_se">
        <mask id="a">
            <circle cx="256" cy="256" r="256" fill="#fff"></circle>
        </mask>
        <g mask="url(#a)">
            <path fill="#0052b4" d="M0 0h133.6l35.3 16.7L200.3 0H512v222.6l-22.6 31.7 22.6 35.1V512H200.3l-32-19.8-34.7 19.8H0V289.4l22.1-33.3L0 222.6z"></path>
            <path fill="#ffda44" d="M133.6 0v222.6H0v66.8h133.6V512h66.7V289.4H512v-66.8H200.3V0z"></path>
        </g>
    </symbol>
    <symbol xmlns="http://www.w3.org/2000/svg" viewBox="0 0 512 512" id="flag_sk">
        <mask id="a">
            <circle cx="256" cy="256" r="256" fill="#fff"></circle>
        </mask>
        <g mask="url(#a)">
            <path fill="#0052b4" d="m0 160 256-32 256 32v192l-256 32L0 352z"></path>
            <path fill="#eee" d="M0 0h512v160H0z"></path>
            <path fill="#d80027" d="M0 352h512v160H0z"></path>
            <path fill="#eee" d="M64 63v217c0 104 144 137 144 137s144-33 144-137V63z"></path>
            <path fill="#d80027" d="M96 95v185a83 78 0 0 0 9 34h206a83 77 0 0 0 9-34V95z"></path>
            <path fill="#eee" d="M288 224h-64v-32h32v-32h-32v-32h-32v32h-32v32h32v32h-64v32h64v32h32v-32h64z"></path>
            <path fill="#0052b4" d="M152 359a247 231 0 0 0 56 24c12-3 34-11 56-24a123 115 0 0 0 47-45 60 56 0 0 0-34-10l-14 2a60 56 0 0 0-110 0 60 56 0 0 0-14-2c-12 0-24 4-34 10a123 115 0 0 0 47 45z"></path>
        </g>
    </symbol>
    <symbol xmlns="http://www.w3.org/2000/svg" viewBox="0 0 512 512" id="flag_cn">
        <mask id="a">
            <circle cx="256" cy="256" r="256" fill="#fff"></circle>
        </mask>
        <g mask="url(#a)">
            <path fill="#d80027" d="M0 0h512v512H0z"></path>
            <path fill="#ffda44" d="m140.1 155.8 22.1 68h71.5l-57.8 42.1 22.1 68-57.9-42-57.9 42 22.2-68-57.9-42.1H118zm163.4 240.7-16.9-20.8-25 9.7 14.5-22.5-16.9-20.9 25.9 6.9 14.6-22.5 1.4 26.8 26 6.9-25.1 9.6zm33.6-61 8-25.6-21.9-15.5 26.8-.4 7.9-25.6 8.7 25.4 26.8-.3-21.5 16 8.6 25.4-21.9-15.5zm45.3-147.6L370.6 212l19.2 18.7-26.5-3.8-11.8 24-4.6-26.4-26.6-3.8 23.8-12.5-4.6-26.5 19.2 18.7zm-78.2-73-2 26.7 24.9 10.1-26.1 6.4-1.9 26.8-14.1-22.8-26.1 6.4 17.3-20.5-14.2-22.7 24.9 10.1z"></path>
        </g>
    </symbol>
</svg>