<svg xmlns="http://www.w3.org/2000/svg" viewBox="0 0 50 36" fill="none">
<g clip-path="url(#clip0_574_1349)">
<path d="M1.00379 33.5951C0.875384 33.5948 0.749331 33.5227 0.638643 33.3861C0.493344 33.2076 0.381844 32.9294 0.322949 32.5984C0.264055 32.2674 0.26137 31.904 0.315348 31.5694L0.33844 31.4664V31.4422L0.43081 31.0183L0.550603 30.4672C0.821939 29.2197 1.12792 27.8268 1.43389 26.4521C1.92316 24.2629 2.38213 22.2765 2.8382 20.3962C3.41552 17.9738 3.96974 15.7997 4.51097 13.7892C5.16044 11.3668 5.73631 9.41375 6.32084 7.61816C6.8726 5.86225 7.49759 4.2126 8.18845 2.68864C8.30049 2.45568 8.44583 2.30616 8.60222 2.26296C8.75862 2.21976 8.91745 2.28525 9.05441 2.44943C9.14925 2.56616 9.23038 2.72607 9.29183 2.91735C9.35328 3.10863 9.39348 3.32641 9.40946 3.55463C9.39411 3.9854 9.35661 4.4113 9.29957 4.82637C9.05133 6.63308 8.82664 8.46615 8.62865 10.2797C8.25917 13.6771 7.96185 17.1865 7.72227 21.0109C7.6501 22.1645 7.57794 23.3545 7.51732 24.602C8.22597 21.786 9.12514 18.2796 10.0878 14.8429C11.163 11.0155 12.2903 7.38804 13.4391 4.05728C13.5457 3.74974 13.7031 3.53655 13.8805 3.45929C14.058 3.38203 14.2428 3.44625 14.3989 3.63942C14.5556 3.82766 14.6722 4.13407 14.7251 4.49633C14.7562 4.71248 14.7628 4.94095 14.7443 5.16339C14.7257 5.38583 14.6826 5.59605 14.6183 5.77716C13.9529 7.709 13.3005 9.71351 12.6785 11.7544C11.7317 14.855 10.7734 18.2827 9.74863 22.2402C9.0371 24.9866 8.33855 27.8056 7.66309 30.5308C7.47258 31.2999 7.28784 32.0448 7.10166 32.7957C7.02479 33.0943 6.90232 33.3301 6.75391 33.4652C6.60551 33.6003 6.43977 33.6268 6.28331 33.5406C6.12126 33.4576 5.97857 33.2563 5.88074 32.9729C5.78291 32.6894 5.73632 32.3422 5.7493 31.9933C5.83878 29.5709 5.92971 27.4513 6.02352 25.5346C6.2227 21.4529 6.45651 17.8315 6.74516 14.4553C6.86063 13.123 6.98764 11.7907 7.12619 10.4735C6.62393 12.1359 6.10579 13.9496 5.52992 16.1267C5.0089 18.101 4.48066 20.2145 3.91633 22.5914C3.48335 24.4082 3.05037 26.331 2.57553 28.4445C2.29168 29.7082 2.01457 30.9739 1.7442 32.2416L1.70719 32.4091C1.65885 32.628 1.60059 32.8366 1.53324 33.0321C1.48543 33.1708 1.43243 33.3047 1.36282 33.394C1.29894 33.476 1.22889 33.5359 1.15534 33.5708C1.10542 33.5909 1.05458 33.599 1.00379 33.5951ZM7.53608 7.11249L8.43064 4.78555L8.04845 7.61816C7.77278 9.91639 7.52887 12.2903 7.32681 14.6733C7.03815 18.0041 6.80145 21.6104 6.60517 25.6588C6.50702 27.5785 6.41754 29.6799 6.33527 32.0811C6.33448 32.146 6.34438 32.2094 6.36332 32.2607C6.38225 32.312 6.40906 32.3481 6.43919 32.3627C6.46917 32.3796 6.50095 32.3757 6.52981 32.3517C6.55867 32.3277 6.58307 32.2849 6.59939 32.2295L7.1565 29.9857C7.83051 27.2363 8.5305 24.4173 9.24493 21.6619C10.2769 17.6801 11.2424 14.2161 12.195 11.1003C12.83 9.04736 13.4824 7.0156 14.1535 5.06862C14.1652 5.03801 14.1734 5.00213 14.1774 4.96378C14.1814 4.92543 14.1812 4.88566 14.1766 4.84758C14.1655 4.77863 14.1423 4.72121 14.1117 4.68709C14.0792 4.64556 14.0405 4.63093 14.0031 4.64605C13.9658 4.66116 13.9324 4.70495 13.9096 4.76885C12.7709 8.0663 11.6538 11.6635 10.5901 15.4576C9.52637 19.2516 8.55793 23.0547 7.82618 25.9858C7.66165 26.6398 7.49856 27.2949 7.33691 27.9509L6.57777 31.2824L6.79279 27.6148C6.90248 25.1652 7.01939 22.9548 7.15073 20.8625C7.3932 16.9988 7.69196 13.453 8.06721 10.0193C8.29092 7.95124 8.55071 5.87103 8.83792 3.83018C8.84503 3.7675 8.84243 3.7017 8.83049 3.64235C8.81855 3.58299 8.79789 3.53317 8.77153 3.50013C8.74486 3.46767 8.71394 3.45397 8.68329 3.46106C8.65265 3.46814 8.62388 3.49563 8.60122 3.53949C7.93468 5.00406 7.33143 6.58987 6.79857 8.27826C6.22125 10.0436 5.65693 11.9754 5.01467 14.3614C4.47777 16.3538 3.9351 18.4976 3.3549 20.917C2.90171 22.8004 2.44563 24.7776 1.9578 26.9729C1.61141 28.5202 0.973484 31.4543 0.973484 31.4543C0.973484 31.4543 0.923938 31.6665 0.893995 31.9051C0.888948 31.9453 0.846721 32.2234 0.952323 32.3233C1.04356 32.4097 1.09521 32.2416 1.12898 32.1221L1.22173 31.7389C1.49788 30.4672 1.77547 29.1985 2.0545 27.9328C2.52645 25.8132 2.9681 23.8874 3.40253 22.0525C3.96829 19.6664 4.49942 17.5287 5.02477 15.5393C5.66126 13.1169 6.22558 11.1609 6.79857 9.3441C7.06557 8.49627 7.3066 7.76653 7.53608 7.11249Z" fill="url(#paint0_linear_574_1349)"/>
<path d="M1.00379 33.5951C0.875384 33.5948 0.749331 33.5227 0.638643 33.3861C0.493344 33.2076 0.381844 32.9294 0.322949 32.5984C0.264055 32.2674 0.26137 31.904 0.315348 31.5694L0.33844 31.4664V31.4422L0.43081 31.0183L0.550603 30.4672C0.821939 29.2197 1.12792 27.8268 1.43389 26.4521C1.92316 24.2629 2.38213 22.2765 2.8382 20.3962C3.41552 17.9738 3.96974 15.7997 4.51097 13.7892C5.16044 11.3668 5.73631 9.41375 6.32084 7.61816C6.8726 5.86225 7.49759 4.2126 8.18845 2.68864C8.30049 2.45568 8.44583 2.30616 8.60222 2.26296C8.75862 2.21976 8.91745 2.28525 9.05441 2.44943C9.14925 2.56616 9.23038 2.72607 9.29183 2.91735C9.35328 3.10863 9.39348 3.32641 9.40946 3.55463C9.39411 3.9854 9.35661 4.4113 9.29957 4.82637C9.05133 6.63308 8.82664 8.46615 8.62865 10.2797C8.25917 13.6771 7.96185 17.1865 7.72227 21.0109C7.6501 22.1645 7.57794 23.3545 7.51732 24.602C8.22597 21.786 9.12514 18.2796 10.0878 14.8429C11.163 11.0155 12.2903 7.38804 13.4391 4.05728C13.5457 3.74974 13.7031 3.53655 13.8805 3.45929C14.058 3.38203 14.2428 3.44625 14.3989 3.63942C14.5556 3.82766 14.6722 4.13407 14.7251 4.49633C14.7562 4.71248 14.7628 4.94095 14.7443 5.16339C14.7257 5.38583 14.6826 5.59605 14.6183 5.77716C13.9529 7.709 13.3005 9.71351 12.6785 11.7544C11.7317 14.855 10.7734 18.2827 9.74863 22.2402C9.0371 24.9866 8.33855 27.8056 7.66309 30.5308C7.47258 31.2999 7.28784 32.0448 7.10166 32.7957C7.02479 33.0943 6.90232 33.3301 6.75391 33.4652C6.60551 33.6003 6.43977 33.6268 6.28331 33.5406C6.12126 33.4576 5.97857 33.2563 5.88074 32.9729C5.78291 32.6894 5.73632 32.3422 5.7493 31.9933C5.83878 29.5709 5.92971 27.4513 6.02352 25.5346C6.2227 21.4529 6.45651 17.8315 6.74516 14.4553C6.86063 13.123 6.98764 11.7907 7.12619 10.4735C6.62393 12.1359 6.10579 13.9496 5.52992 16.1267C5.0089 18.101 4.48066 20.2145 3.91633 22.5914C3.48335 24.4082 3.05037 26.331 2.57553 28.4445C2.29168 29.7082 2.01457 30.9739 1.7442 32.2416L1.70719 32.4091C1.65885 32.628 1.60059 32.8366 1.53324 33.0321C1.48543 33.1708 1.43243 33.3047 1.36282 33.394C1.29894 33.476 1.22889 33.5359 1.15534 33.5708C1.10542 33.5909 1.05458 33.599 1.00379 33.5951ZM7.53608 7.11249L8.43064 4.78555L8.04845 7.61816C7.77278 9.91639 7.52887 12.2903 7.32681 14.6733C7.03815 18.0041 6.80145 21.6104 6.60517 25.6588C6.50702 27.5785 6.41754 29.6799 6.33527 32.0811C6.33448 32.146 6.34438 32.2094 6.36332 32.2607C6.38225 32.312 6.40906 32.3481 6.43919 32.3627C6.46917 32.3796 6.50095 32.3757 6.52981 32.3517C6.55867 32.3277 6.58307 32.2849 6.59939 32.2295L7.1565 29.9857C7.83051 27.2363 8.5305 24.4173 9.24493 21.6619C10.2769 17.6801 11.2424 14.2161 12.195 11.1003C12.83 9.04736 13.4824 7.0156 14.1535 5.06862C14.1652 5.03801 14.1734 5.00213 14.1774 4.96378C14.1814 4.92543 14.1812 4.88566 14.1766 4.84758C14.1655 4.77863 14.1423 4.72121 14.1117 4.68709C14.0792 4.64556 14.0405 4.63093 14.0031 4.64605C13.9658 4.66116 13.9324 4.70495 13.9096 4.76885C12.7709 8.0663 11.6538 11.6635 10.5901 15.4576C9.52637 19.2516 8.55793 23.0547 7.82618 25.9858C7.66165 26.6398 7.49856 27.2949 7.33691 27.9509L6.57777 31.2824L6.79279 27.6148C6.90248 25.1652 7.01939 22.9548 7.15073 20.8625C7.3932 16.9988 7.69196 13.453 8.06721 10.0193C8.29092 7.95124 8.55071 5.87103 8.83792 3.83018C8.84503 3.7675 8.84243 3.7017 8.83049 3.64235C8.81855 3.58299 8.79789 3.53317 8.77153 3.50013C8.74486 3.46767 8.71394 3.45397 8.68329 3.46106C8.65265 3.46814 8.62388 3.49563 8.60122 3.53949C7.93468 5.00406 7.33143 6.58987 6.79857 8.27826C6.22125 10.0436 5.65693 11.9754 5.01467 14.3614C4.47777 16.3538 3.9351 18.4976 3.3549 20.917C2.90171 22.8004 2.44563 24.7776 1.9578 26.9729C1.61141 28.5202 0.973484 31.4543 0.973484 31.4543C0.973484 31.4543 0.923938 31.6665 0.893995 31.9051C0.888948 31.9453 0.846721 32.2234 0.952323 32.3233C1.04356 32.4097 1.09521 32.2416 1.12898 32.1221L1.22173 31.7389C1.49788 30.4672 1.77547 29.1985 2.0545 27.9328C2.52645 25.8132 2.9681 23.8874 3.40253 22.0525C3.96829 19.6664 4.49942 17.5287 5.02477 15.5393C5.66126 13.1169 6.22558 11.1609 6.79857 9.3441C7.06557 8.49627 7.3066 7.76653 7.53608 7.11249Z" fill="url(#paint1_linear_574_1349)"/>
<path d="M23.799 33.9433C23.6705 33.9421 23.5444 33.869 23.4339 33.7313C23.2774 33.5402 23.1602 33.2342 23.105 32.8723C23.0498 32.5104 23.0605 32.1185 23.1351 31.7722L23.1669 31.6239C23.3386 30.8366 23.5104 30.0463 23.6865 29.2621C24.2465 26.7579 24.7343 24.7504 25.2207 22.9457C25.7071 21.1411 26.2237 19.3122 26.9006 17.7407L27.0043 17.5216C27.0707 17.3814 27.1438 17.2559 27.2224 17.1472C27.3069 17.0305 27.3965 16.923 27.4964 16.8902C27.5527 16.8717 27.6101 16.8668 27.6673 16.8759C27.7752 16.8932 27.8801 16.96 27.9744 17.0715C28.1129 17.2409 28.2206 17.5022 28.2804 17.8141C28.3403 18.1261 28.3489 18.471 28.305 18.7944C28.1606 19.7936 28.0394 20.805 27.9311 21.8012C27.8229 22.7974 27.7233 23.8693 27.6353 24.9896C28.1029 23.2637 28.5691 21.5831 29.0309 19.9662C29.6544 17.7891 30.3212 15.4909 31.0631 13.2896L31.1616 13.0049C31.2055 12.8781 31.2552 12.7605 31.3101 12.654C31.3982 12.4827 31.4931 12.3178 31.6084 12.2476C31.6753 12.2069 31.7448 12.186 31.815 12.186C31.9458 12.186 32.0743 12.2586 32.1874 12.3963C32.344 12.5833 32.4607 12.8888 32.5136 13.2502C32.5449 13.4668 32.5515 13.6958 32.5329 13.9188C32.5144 14.1417 32.4712 14.3525 32.4068 14.534C31.9738 15.7997 31.5639 17.123 31.2521 18.1343C30.5536 20.4446 29.8276 23.0002 28.9645 26.1735C28.2256 28.8987 27.6439 31.1122 27.1345 33.1621C27.0574 33.4602 26.9348 33.6953 26.7864 33.8298C26.638 33.9643 26.4724 33.9904 26.3161 33.9039C26.2033 33.8438 26.0991 33.7273 26.0124 33.5644C25.9607 33.4673 25.9162 33.3554 25.88 33.2325C25.8309 33.0659 25.8123 32.8701 25.8008 32.6758C25.7884 32.4676 25.7861 32.2573 25.7941 32.0482L25.8052 31.7571C25.8442 30.773 25.8802 29.9191 25.9207 29.1107C25.9765 27.96 26.0414 26.8558 26.1155 25.7981C25.9033 26.6338 25.7128 27.4241 25.5483 28.1145C25.1485 29.8041 24.7747 31.5088 24.4254 33.1106C24.3791 33.3104 24.3116 33.4853 24.228 33.6217C24.1444 33.7582 24.0471 33.8527 23.9434 33.8979C23.8962 33.9239 23.8478 33.9391 23.799 33.9433ZM27.5169 18.1494C26.7953 19.6967 26.2353 21.6619 25.7287 23.5422C25.2495 25.3197 24.7689 27.2999 24.2147 29.7768C24.0405 30.558 23.8683 31.3413 23.698 32.1265L23.6663 32.2749C23.6512 32.3483 23.6495 32.4308 23.6615 32.5066C23.6735 32.5825 23.6983 32.6466 23.7312 32.6867C23.761 32.7246 23.7964 32.7386 23.8308 32.7261C23.8486 32.7158 23.865 32.6971 23.8788 32.6714C23.8925 32.6456 23.9033 32.6136 23.9102 32.5777C24.2609 30.9668 24.6318 29.2469 25.0417 27.5452C25.3996 26.0312 25.8831 24.06 26.4446 22.1615L27.4653 18.9419L26.9728 22.6005C26.7751 24.6535 26.6221 26.8155 26.5052 29.2045C26.4576 30.1614 26.4143 31.1879 26.3681 32.4263C26.3667 32.4914 26.3764 32.5555 26.3954 32.607C26.4145 32.6586 26.4416 32.6943 26.472 32.7079C26.5018 32.7251 26.5335 32.7217 26.5623 32.6982C26.5912 32.6748 26.6157 32.6325 26.6322 32.5777C27.146 30.5126 27.7305 28.281 28.4724 25.5468C29.3383 22.3583 30.0715 19.7936 30.7816 17.4621C31.0862 16.4568 31.4903 15.1063 31.9261 13.8346L31.6952 13.4924C30.9029 15.7967 30.1957 18.2706 29.5332 20.5779C28.8274 23.0487 28.1087 25.6709 27.3971 28.3688L26.6322 31.6239L26.8588 28.0055C26.9752 25.8255 27.1476 23.6604 27.3755 21.5196C27.4866 20.4991 27.6151 19.4636 27.7594 18.4401C27.7665 18.3774 27.7639 18.3116 27.752 18.2523C27.74 18.1929 27.7194 18.1431 27.693 18.1101C27.6663 18.0776 27.6354 18.0639 27.6048 18.071C27.5741 18.0781 27.5454 18.1056 27.5227 18.1494H27.5169ZM31.9233 13.8406L31.9391 13.7952C31.951 13.7642 31.9592 13.7277 31.963 13.6887C31.9668 13.6497 31.966 13.6094 31.9608 13.5712C31.9501 13.5034 31.9274 13.447 31.8973 13.4137C31.865 13.3719 31.8264 13.3567 31.789 13.3713C31.7517 13.3858 31.7182 13.429 31.6952 13.4924L31.9261 13.8346L31.9233 13.8406Z" fill="url(#paint2_linear_574_1349)"/>
<path d="M23.799 33.9433C23.6705 33.9421 23.5444 33.869 23.4339 33.7313C23.2774 33.5402 23.1602 33.2342 23.105 32.8723C23.0498 32.5104 23.0605 32.1185 23.1351 31.7722L23.1669 31.6239C23.3386 30.8366 23.5104 30.0463 23.6865 29.2621C24.2465 26.7579 24.7343 24.7504 25.2207 22.9457C25.7071 21.1411 26.2237 19.3122 26.9006 17.7407L27.0043 17.5216C27.0707 17.3814 27.1438 17.2559 27.2224 17.1472C27.3069 17.0305 27.3965 16.923 27.4964 16.8902C27.5527 16.8717 27.6101 16.8668 27.6673 16.8759C27.7752 16.8932 27.8801 16.96 27.9744 17.0715C28.1129 17.2409 28.2206 17.5022 28.2804 17.8141C28.3403 18.1261 28.3489 18.471 28.305 18.7944C28.1606 19.7936 28.0394 20.805 27.9311 21.8012C27.8229 22.7974 27.7233 23.8693 27.6353 24.9896C28.1029 23.2637 28.5691 21.5831 29.0309 19.9662C29.6544 17.7891 30.3212 15.4909 31.0631 13.2896L31.1616 13.0049C31.2055 12.8781 31.2552 12.7605 31.3101 12.654C31.3982 12.4827 31.4931 12.3178 31.6084 12.2476C31.6753 12.2069 31.7448 12.186 31.815 12.186C31.9458 12.186 32.0743 12.2586 32.1874 12.3963C32.344 12.5833 32.4607 12.8888 32.5136 13.2502C32.5449 13.4668 32.5515 13.6958 32.5329 13.9188C32.5144 14.1417 32.4712 14.3525 32.4068 14.534C31.9738 15.7997 31.5639 17.123 31.2521 18.1343C30.5536 20.4446 29.8276 23.0002 28.9645 26.1735C28.2256 28.8987 27.6439 31.1122 27.1345 33.1621C27.0574 33.4602 26.9348 33.6953 26.7864 33.8298C26.638 33.9643 26.4724 33.9904 26.3161 33.9039C26.2033 33.8438 26.0991 33.7273 26.0124 33.5644C25.9607 33.4673 25.9162 33.3554 25.88 33.2325C25.8309 33.0659 25.8123 32.8701 25.8008 32.6758C25.7884 32.4676 25.7861 32.2573 25.7941 32.0482L25.8052 31.7571C25.8442 30.773 25.8802 29.9191 25.9207 29.1107C25.9765 27.96 26.0414 26.8558 26.1155 25.7981C25.9033 26.6338 25.7128 27.4241 25.5483 28.1145C25.1485 29.8041 24.7747 31.5088 24.4254 33.1106C24.3791 33.3104 24.3116 33.4853 24.228 33.6217C24.1444 33.7582 24.0471 33.8527 23.9434 33.8979C23.8962 33.9239 23.8478 33.9391 23.799 33.9433ZM27.5169 18.1494C26.7953 19.6967 26.2353 21.6619 25.7287 23.5422C25.2495 25.3197 24.7689 27.2999 24.2147 29.7768C24.0405 30.558 23.8683 31.3413 23.698 32.1265L23.6663 32.2749C23.6512 32.3483 23.6495 32.4308 23.6615 32.5066C23.6735 32.5825 23.6983 32.6466 23.7312 32.6867C23.761 32.7246 23.7964 32.7386 23.8308 32.7261C23.8486 32.7158 23.865 32.6971 23.8788 32.6714C23.8925 32.6456 23.9033 32.6136 23.9102 32.5777C24.2609 30.9668 24.6318 29.2469 25.0417 27.5452C25.3996 26.0312 25.8831 24.06 26.4446 22.1615L27.4653 18.9419L26.9728 22.6005C26.7751 24.6535 26.6221 26.8155 26.5052 29.2045C26.4576 30.1614 26.4143 31.1879 26.3681 32.4263C26.3667 32.4914 26.3764 32.5555 26.3954 32.607C26.4145 32.6586 26.4416 32.6943 26.472 32.7079C26.5018 32.7251 26.5335 32.7217 26.5623 32.6982C26.5912 32.6748 26.6157 32.6325 26.6322 32.5777C27.146 30.5126 27.7305 28.281 28.4724 25.5468C29.3383 22.3583 30.0715 19.7936 30.7816 17.4621C31.0862 16.4568 31.4903 15.1063 31.9261 13.8346L31.6952 13.4924C30.9029 15.7967 30.1957 18.2706 29.5332 20.5779C28.8274 23.0487 28.1087 25.6709 27.3971 28.3688L26.6322 31.6239L26.8588 28.0055C26.9752 25.8255 27.1476 23.6604 27.3755 21.5196C27.4866 20.4991 27.6151 19.4636 27.7594 18.4401C27.7665 18.3774 27.7639 18.3116 27.752 18.2523C27.74 18.1929 27.7194 18.1431 27.693 18.1101C27.6663 18.0776 27.6354 18.0639 27.6048 18.071C27.5741 18.0781 27.5454 18.1056 27.5227 18.1494H27.5169ZM31.9233 13.8406L31.9391 13.7952C31.951 13.7642 31.9592 13.7277 31.963 13.6887C31.9668 13.6497 31.966 13.6094 31.9608 13.5712C31.9501 13.5034 31.9274 13.447 31.8973 13.4137C31.865 13.3719 31.8264 13.3567 31.789 13.3713C31.7517 13.3858 31.7182 13.429 31.6952 13.4924L31.9261 13.8346L31.9233 13.8406Z" fill="url(#paint3_linear_574_1349)"/>
<path d="M13.8751 33.9795C13.0889 34.0048 12.3106 33.6461 11.6019 32.9318C11.059 32.3788 10.5988 31.5242 10.2712 30.461C9.91791 29.2439 9.74183 27.8368 9.76459 26.4126C9.78624 23.4331 10.3852 20.8139 11.4114 19.2333C12.1965 18.0221 13.2429 17.3439 14.5202 17.2227C15.4185 17.1428 16.3177 17.3201 17.1932 17.7496C17.2953 17.7982 17.391 17.8938 17.4733 18.0294C17.5557 18.165 17.6227 18.3373 17.6694 18.5339C17.7461 18.8667 17.762 19.2469 17.7142 19.6027C17.6795 19.8792 17.6083 20.1294 17.5087 20.3245C17.4463 20.4466 17.3744 20.544 17.2964 20.6129C17.2034 20.6951 17.1004 20.7012 16.9995 20.6939C16.9056 20.6871 16.8123 20.6599 16.7211 20.6127L16.6476 20.5747C15.8886 20.2446 15.1114 20.1376 14.3384 20.2568C13.3742 20.4142 12.6237 20.9714 12.1056 21.91C11.4691 23.0667 11.127 25.047 11.2165 27.0788C11.2435 27.8624 11.3846 28.6097 11.6207 29.2195C11.8672 29.7948 12.1797 30.2283 12.5285 30.4792C13.2905 31.0575 14.2344 31.106 15.1841 30.6124C15.2822 30.5615 15.3842 30.5543 15.4836 30.5913C15.5831 30.6284 15.6777 30.7088 15.7614 30.8274C15.9033 31.0317 16.0056 31.3356 16.0501 31.6843C16.0767 31.8766 16.0845 32.0782 16.073 32.277C16.0615 32.4758 16.0308 32.6676 15.9829 32.8409C15.935 33.0141 15.8709 33.1652 15.7943 33.2849C15.7178 33.4046 15.6305 33.4905 15.5377 33.5374C15.3934 33.6101 15.2491 33.6767 15.1047 33.7312C14.6991 33.8896 14.2876 33.9727 13.8751 33.9795ZM14.9445 18.4127C14.8117 18.4127 14.679 18.4127 14.5462 18.4339C13.3916 18.5429 12.4462 19.1394 11.7534 20.2083C10.8745 21.5648 10.3607 23.8419 10.3419 26.4308C10.3235 27.6184 10.4678 28.7921 10.7576 29.813C11.0297 30.6886 11.4104 31.392 11.8588 31.8478C12.9557 32.9954 14.168 32.8622 15.0037 32.5503C15.1336 32.5019 15.2664 32.4413 15.3977 32.3747C15.4165 32.3661 15.4341 32.3489 15.4494 32.3243C15.4646 32.2997 15.477 32.2683 15.4858 32.2324C15.4975 32.1628 15.4975 32.0869 15.4858 32.0174C15.476 31.9449 15.4552 31.8811 15.4266 31.8357C15.41 31.8139 15.3914 31.7995 15.3721 31.7933C15.3527 31.787 15.333 31.7891 15.314 31.7994C14.2546 32.3505 13.1924 32.2899 12.3235 31.6298C11.9781 31.3684 11.6601 30.9695 11.3868 30.455L11.3031 30.2854C11.2613 30.2006 11.2223 30.1098 11.1848 30.0189C11.1501 29.9341 11.1169 29.8463 11.0852 29.7525L11.013 29.5314C10.8033 28.8269 10.6766 28.0276 10.6436 27.1999C10.5396 24.7775 10.9553 22.4157 11.7318 21.0077C12.3394 19.8934 13.2025 19.2394 14.2922 19.0607C15.1188 18.9333 15.9499 19.0474 16.7616 19.3999L16.9868 19.5028C17.0235 19.5202 17.062 19.5069 17.0941 19.4656C17.1262 19.4243 17.1493 19.3583 17.1585 19.2818C17.1703 19.2122 17.1703 19.1363 17.1585 19.0668C17.1495 19.0314 17.1367 19.0007 17.1212 18.9771C17.1057 18.9536 17.0879 18.9376 17.069 18.9305C16.3727 18.5872 15.6598 18.4135 14.9445 18.4127Z" fill="url(#paint4_linear_574_1349)"/>
<path d="M13.8751 33.9795C13.0889 34.0048 12.3106 33.6461 11.6019 32.9318C11.059 32.3788 10.5988 31.5242 10.2712 30.461C9.91791 29.2439 9.74183 27.8368 9.76459 26.4126C9.78624 23.4331 10.3852 20.8139 11.4114 19.2333C12.1965 18.0221 13.2429 17.3439 14.5202 17.2227C15.4185 17.1428 16.3177 17.3201 17.1932 17.7496C17.2953 17.7982 17.391 17.8938 17.4733 18.0294C17.5557 18.165 17.6227 18.3373 17.6694 18.5339C17.7461 18.8667 17.762 19.2469 17.7142 19.6027C17.6795 19.8792 17.6083 20.1294 17.5087 20.3245C17.4463 20.4466 17.3744 20.544 17.2964 20.6129C17.2034 20.6951 17.1004 20.7012 16.9995 20.6939C16.9056 20.6871 16.8123 20.6599 16.7211 20.6127L16.6476 20.5747C15.8886 20.2446 15.1114 20.1376 14.3384 20.2568C13.3742 20.4142 12.6237 20.9714 12.1056 21.91C11.4691 23.0667 11.127 25.047 11.2165 27.0788C11.2435 27.8624 11.3846 28.6097 11.6207 29.2195C11.8672 29.7948 12.1797 30.2283 12.5285 30.4792C13.2905 31.0575 14.2344 31.106 15.1841 30.6124C15.2822 30.5615 15.3842 30.5543 15.4836 30.5913C15.5831 30.6284 15.6777 30.7088 15.7614 30.8274C15.9033 31.0317 16.0056 31.3356 16.0501 31.6843C16.0767 31.8766 16.0845 32.0782 16.073 32.277C16.0615 32.4758 16.0308 32.6676 15.9829 32.8409C15.935 33.0141 15.8709 33.1652 15.7943 33.2849C15.7178 33.4046 15.6305 33.4905 15.5377 33.5374C15.3934 33.6101 15.2491 33.6767 15.1047 33.7312C14.6991 33.8896 14.2876 33.9727 13.8751 33.9795ZM14.9445 18.4127C14.8117 18.4127 14.679 18.4127 14.5462 18.4339C13.3916 18.5429 12.4462 19.1394 11.7534 20.2083C10.8745 21.5648 10.3607 23.8419 10.3419 26.4308C10.3235 27.6184 10.4678 28.7921 10.7576 29.813C11.0297 30.6886 11.4104 31.392 11.8588 31.8478C12.9557 32.9954 14.168 32.8622 15.0037 32.5503C15.1336 32.5019 15.2664 32.4413 15.3977 32.3747C15.4165 32.3661 15.4341 32.3489 15.4494 32.3243C15.4646 32.2997 15.477 32.2683 15.4858 32.2324C15.4975 32.1628 15.4975 32.0869 15.4858 32.0174C15.476 31.9449 15.4552 31.8811 15.4266 31.8357C15.41 31.8139 15.3914 31.7995 15.3721 31.7933C15.3527 31.787 15.333 31.7891 15.314 31.7994C14.2546 32.3505 13.1924 32.2899 12.3235 31.6298C11.9781 31.3684 11.6601 30.9695 11.3868 30.455L11.3031 30.2854C11.2613 30.2006 11.2223 30.1098 11.1848 30.0189C11.1501 29.9341 11.1169 29.8463 11.0852 29.7525L11.013 29.5314C10.8033 28.8269 10.6766 28.0276 10.6436 27.1999C10.5396 24.7775 10.9553 22.4157 11.7318 21.0077C12.3394 19.8934 13.2025 19.2394 14.2922 19.0607C15.1188 18.9333 15.9499 19.0474 16.7616 19.3999L16.9868 19.5028C17.0235 19.5202 17.062 19.5069 17.0941 19.4656C17.1262 19.4243 17.1493 19.3583 17.1585 19.2818C17.1703 19.2122 17.1703 19.1363 17.1585 19.0668C17.1495 19.0314 17.1367 19.0007 17.1212 18.9771C17.1057 18.9536 17.0879 18.9376 17.069 18.9305C16.3727 18.5872 15.6598 18.4135 14.9445 18.4127Z" fill="url(#paint5_linear_574_1349)"/>
<path d="M9.69822 26.8305C9.55517 26.8315 9.41532 26.7418 9.29698 26.5732C9.15578 26.3675 9.05359 26.0642 9.00833 25.7163C8.96083 25.3627 8.97621 24.985 9.05163 24.6534C9.09641 24.46 9.16062 24.2892 9.23985 24.1528C9.31907 24.0164 9.41143 23.9176 9.51059 23.8631C11.1675 22.9759 12.8604 22.1978 14.5404 21.5528C14.72 21.4811 14.9058 21.5551 15.0603 21.7596C15.2149 21.9642 15.3267 22.2842 15.3732 22.655C15.4223 23.0177 15.4042 23.406 15.3227 23.742C15.2741 23.9405 15.2044 24.113 15.1191 24.2463C15.0338 24.3796 14.9351 24.4702 14.8305 24.5111C13.1765 25.147 11.511 25.9131 9.87863 26.7882C9.81948 26.817 9.75894 26.8312 9.69822 26.8305ZM9.66646 25.0319C9.64787 25.0405 9.63043 25.0578 9.61544 25.0824C9.60045 25.107 9.58829 25.1384 9.57987 25.1742C9.56498 25.2416 9.56241 25.3181 9.57265 25.3892C9.58149 25.461 9.60189 25.5241 9.63038 25.5679C9.64659 25.5903 9.6649 25.6051 9.68407 25.6114C9.70324 25.6176 9.72283 25.6152 9.74151 25.6042L10.0172 25.4528L9.87285 25.5376C11.4749 24.6837 13.1087 23.9358 14.7309 23.3151C14.7495 23.3095 14.7671 23.2948 14.7824 23.2722C14.7977 23.2496 14.8103 23.2196 14.819 23.1849C14.8308 23.1174 14.8308 23.0434 14.819 22.9759C14.8097 22.8985 14.7869 22.8313 14.7551 22.7875C14.7233 22.7438 14.6848 22.7267 14.6472 22.7398C13.0105 23.3696 11.3623 24.1235 9.74729 24.9865L9.94357 24.8896L9.66646 25.0319Z" fill="url(#paint6_linear_574_1349)"/>
<path d="M9.69822 26.8305C9.55517 26.8315 9.41532 26.7418 9.29698 26.5732C9.15578 26.3675 9.05359 26.0642 9.00833 25.7163C8.96083 25.3627 8.97621 24.985 9.05163 24.6534C9.09641 24.46 9.16062 24.2892 9.23985 24.1528C9.31907 24.0164 9.41143 23.9176 9.51059 23.8631C11.1675 22.9759 12.8604 22.1978 14.5404 21.5528C14.72 21.4811 14.9058 21.5551 15.0603 21.7596C15.2149 21.9642 15.3267 22.2842 15.3732 22.655C15.4223 23.0177 15.4042 23.406 15.3227 23.742C15.2741 23.9405 15.2044 24.113 15.1191 24.2463C15.0338 24.3796 14.9351 24.4702 14.8305 24.5111C13.1765 25.147 11.511 25.9131 9.87863 26.7882C9.81948 26.817 9.75894 26.8312 9.69822 26.8305ZM9.66646 25.0319C9.64787 25.0405 9.63043 25.0578 9.61544 25.0824C9.60045 25.107 9.58829 25.1384 9.57987 25.1742C9.56498 25.2416 9.56241 25.3181 9.57265 25.3892C9.58149 25.461 9.60189 25.5241 9.63038 25.5679C9.64659 25.5903 9.6649 25.6051 9.68407 25.6114C9.70324 25.6176 9.72283 25.6152 9.74151 25.6042L10.0172 25.4528L9.87285 25.5376C11.4749 24.6837 13.1087 23.9358 14.7309 23.3151C14.7495 23.3095 14.7671 23.2948 14.7824 23.2722C14.7977 23.2496 14.8103 23.2196 14.819 23.1849C14.8308 23.1174 14.8308 23.0434 14.819 22.9759C14.8097 22.8985 14.7869 22.8313 14.7551 22.7875C14.7233 22.7438 14.6848 22.7267 14.6472 22.7398C13.0105 23.3696 11.3623 24.1235 9.74729 24.9865L9.94357 24.8896L9.66646 25.0319Z" fill="url(#paint7_linear_574_1349)"/>
<path d="M9.958 29.2258C9.83535 29.2235 9.71501 29.1556 9.60834 29.0286C9.50167 28.9016 9.41218 28.7197 9.34834 28.5C9.28449 28.2802 9.24839 28.03 9.24345 27.7729C9.2385 27.5158 9.26487 27.2603 9.32007 27.0305C9.34541 26.9208 9.37734 26.8189 9.41491 26.7272C9.48326 26.5603 9.5792 26.459 9.67522 26.3704C9.76251 26.2898 9.85329 26.2271 9.94631 26.1831L10.0879 26.1161C11.3739 25.5347 12.6858 25.0835 14.0064 24.7716L14.1556 24.7388C14.2483 24.7184 14.3418 24.7176 14.4347 24.7366C14.5385 24.7579 14.6439 24.7933 14.733 24.9071C14.7868 24.9757 14.8361 25.0594 14.8796 25.1562C15.0012 25.4369 15.0682 25.8033 15.0672 26.1827C15.0658 26.5589 14.9986 26.9209 14.8783 27.2C14.7581 27.4791 14.5931 27.6559 14.4149 27.6967C12.9762 28.0148 11.5474 28.5062 10.1355 29.1682C10.0776 29.202 10.018 29.2213 9.958 29.2258ZM9.9248 27.4302C9.90625 27.4379 9.88874 27.4541 9.87352 27.4777C9.8583 27.5012 9.84575 27.5315 9.83676 27.5665C9.82312 27.6183 9.81704 27.6775 9.81927 27.7366C9.8215 27.7956 9.83195 27.8521 9.84931 27.8988C9.86667 27.9455 9.89019 27.9806 9.91695 27.9995C9.94371 28.0185 9.97254 28.0206 9.99985 28.0055C11.4334 27.3309 12.8844 26.8315 14.3456 26.5097C14.3833 26.4993 14.418 26.4604 14.443 26.4001C14.4679 26.3399 14.4816 26.2625 14.4812 26.1827C14.4816 26.1109 14.4699 26.0411 14.448 25.9859C14.4353 25.9584 14.4196 25.9376 14.4023 25.925C14.385 25.9124 14.3666 25.9083 14.3485 25.9132H14.2951C12.8258 26.2443 11.3668 26.7498 9.9248 27.4272V27.4302Z" fill="url(#paint8_linear_574_1349)"/>
<path d="M9.958 29.2258C9.83535 29.2235 9.71501 29.1556 9.60834 29.0286C9.50167 28.9016 9.41218 28.7197 9.34834 28.5C9.28449 28.2802 9.24839 28.03 9.24345 27.7729C9.2385 27.5158 9.26487 27.2603 9.32007 27.0305C9.34541 26.9208 9.37734 26.8189 9.41491 26.7272C9.48326 26.5603 9.5792 26.459 9.67522 26.3704C9.76251 26.2898 9.85329 26.2271 9.94631 26.1831L10.0879 26.1161C11.3739 25.5347 12.6858 25.0835 14.0064 24.7716L14.1556 24.7388C14.2483 24.7184 14.3418 24.7176 14.4347 24.7366C14.5385 24.7579 14.6439 24.7933 14.733 24.9071C14.7868 24.9757 14.8361 25.0594 14.8796 25.1562C15.0012 25.4369 15.0682 25.8033 15.0672 26.1827C15.0658 26.5589 14.9986 26.9209 14.8783 27.2C14.7581 27.4791 14.5931 27.6559 14.4149 27.6967C12.9762 28.0148 11.5474 28.5062 10.1355 29.1682C10.0776 29.202 10.018 29.2213 9.958 29.2258ZM9.9248 27.4302C9.90625 27.4379 9.88874 27.4541 9.87352 27.4777C9.8583 27.5012 9.84575 27.5315 9.83676 27.5665C9.82312 27.6183 9.81704 27.6775 9.81927 27.7366C9.8215 27.7956 9.83195 27.8521 9.84931 27.8988C9.86667 27.9455 9.89019 27.9806 9.91695 27.9995C9.94371 28.0185 9.97254 28.0206 9.99985 28.0055C11.4334 27.3309 12.8844 26.8315 14.3456 26.5097C14.3833 26.4993 14.418 26.4604 14.443 26.4001C14.4679 26.3399 14.4816 26.2625 14.4812 26.1827C14.4816 26.1109 14.4699 26.0411 14.448 25.9859C14.4353 25.9584 14.4196 25.9376 14.4023 25.925C14.385 25.9124 14.3666 25.9083 14.3485 25.9132H14.2951C12.8258 26.2443 11.3668 26.7498 9.9248 27.4272V27.4302Z" fill="url(#paint9_linear_574_1349)"/>
<path d="M19.5457 34.146C18.8672 34.1585 18.1987 33.8039 17.6045 33.1165C17.2392 32.6752 16.9204 32.083 16.6674 31.3757C16.4143 30.6683 16.2323 29.8607 16.1324 29.0015C16.0468 28.2875 16.0234 27.5469 16.0631 26.8153C16.1072 26.1483 16.2017 25.5002 16.3431 24.8956L16.4744 24.3566L16.6043 23.8267C16.9316 22.6112 17.3777 21.5545 17.9134 20.7261C17.8339 20.5383 17.7777 20.3123 17.7496 20.0682C17.7216 19.824 17.7225 19.5691 17.7525 19.3259C17.7824 19.0828 17.8404 18.8588 17.9213 18.6737C18.0022 18.4885 18.1036 18.348 18.2164 18.2644C18.4852 18.0687 18.7589 17.9039 19.0362 17.7708C20.0465 17.3015 20.924 17.4226 21.6341 18.1372C22.251 18.782 22.7441 19.8506 23.0312 21.1652C23.261 22.2112 23.405 23.3311 23.457 24.4778C23.5511 25.9914 23.4846 27.53 23.2622 28.9834C22.9891 30.6361 22.4448 32.0313 21.7265 32.9197C21.1997 33.5557 20.615 33.9519 20.0104 34.0825C19.8563 34.1225 19.7011 34.1438 19.5457 34.146ZM16.9839 24.8956C16.811 25.5325 16.6933 26.2286 16.6361 26.9516C16.6049 27.5395 16.6244 28.1344 16.6938 28.7078C16.775 29.4071 16.923 30.0646 17.1289 30.6402C17.3348 31.2159 17.5943 31.6978 17.8917 32.0568C18.5218 32.7734 19.2427 33.0602 19.9542 32.8773C20.4782 32.7642 20.9851 32.4218 21.4422 31.872C22.0432 31.128 22.4981 29.9589 22.7253 28.5746C22.92 27.2914 22.9767 25.9336 22.8912 24.5989C22.8467 23.5868 22.7208 22.5978 22.5189 21.6739C22.2875 20.6126 21.891 19.7477 21.3946 19.2212C20.7985 18.6156 20.048 18.5339 19.1647 18.9426C18.9084 19.0657 18.6555 19.2173 18.407 19.3968C18.3709 19.4218 18.3411 19.4755 18.3238 19.5463C18.3065 19.6172 18.3032 19.6994 18.3146 19.7753C18.3237 19.846 18.3447 19.9073 18.3738 19.9479C18.3897 19.9693 18.4078 19.9825 18.4267 19.9861C18.4455 19.9898 18.4645 19.984 18.482 19.9691L18.5729 19.9055L19.2773 19.5089L19.1824 20.7261L18.7865 21.0289C17.8484 21.9676 17.2884 23.6511 16.9839 24.8956ZM19.5717 32.3353C19.2527 32.3368 18.9352 32.2471 18.6278 32.0689C18.301 31.8905 17.9966 31.5653 17.7357 31.1156C17.4747 30.666 17.2635 30.1027 17.1167 29.4648C16.8906 28.5026 16.8438 27.398 16.9853 26.3672C17.1275 25.5132 17.3283 24.7074 17.5814 23.9751C17.8492 23.1565 18.1928 22.4594 18.5917 21.9252C18.6409 21.862 18.938 21.5492 18.9884 21.4948L19.107 21.3983C19.1632 21.3529 19.2195 21.3105 19.2787 21.2711C19.3519 21.2199 19.3936 21.0505 19.3711 20.8957C19.3413 20.6532 19.2626 20.681 19.1824 20.7261L19.2773 19.5089C19.8017 19.2285 20.3504 19.215 20.8779 19.4695C21.3803 19.745 21.815 20.4064 22.096 21.3226C22.3406 22.1537 22.5012 23.0812 22.5679 24.0478C22.6474 25.024 22.661 26.0189 22.6084 27.0031C22.5373 28.4788 22.2039 29.8443 21.6745 30.8274C21.343 31.391 20.9591 31.8034 20.5473 32.0386C20.455 32.0931 20.3626 32.1446 20.2674 32.1839C20.0969 32.2628 19.9236 32.3115 19.7492 32.3293C19.6915 32.3323 19.6309 32.3353 19.5717 32.3353ZM18.8919 22.9547C18.5584 23.4013 18.2717 23.9854 18.049 24.6715C17.8281 25.3071 17.6526 26.0068 17.528 26.7487C17.4333 27.4838 17.4708 28.2663 17.6334 28.947C17.7453 29.4274 17.9056 29.8511 18.1032 30.1888C18.3008 30.5266 18.531 30.7703 18.7779 30.9031C19.0832 31.078 19.3999 31.1495 19.716 31.1151C19.8594 31.1034 20.0019 31.0639 20.1418 30.997C20.5643 30.8326 20.9609 30.452 21.2964 29.8887C21.7169 29.1049 21.9796 28.0148 22.031 26.8396C22.0764 25.9732 22.0643 25.0979 21.995 24.2385C21.9398 23.4373 21.8077 22.6678 21.6067 21.9767C21.4045 21.3144 21.0906 20.8364 20.7278 20.6383C20.4607 20.5013 20.1844 20.4614 19.9109 20.5202L19.9195 20.5747C19.9557 20.8498 19.9546 21.1406 19.9163 21.4144C19.8797 21.6771 19.8102 21.9142 19.7153 22.1014C19.7072 22.1173 19.6981 22.1307 19.6884 22.1419C19.5859 22.2603 19.2966 22.5381 19.1893 22.6362C19.0953 22.7221 18.9884 22.8303 18.8919 22.9547Z" fill="url(#paint10_linear_574_1349)"/>
<path d="M19.5457 34.146C18.8672 34.1585 18.1987 33.8039 17.6045 33.1165C17.2392 32.6752 16.9204 32.083 16.6674 31.3757C16.4143 30.6683 16.2323 29.8607 16.1324 29.0015C16.0468 28.2875 16.0234 27.5469 16.0631 26.8153C16.1072 26.1483 16.2017 25.5002 16.3431 24.8956L16.4744 24.3566L16.6043 23.8267C16.9316 22.6112 17.3777 21.5545 17.9134 20.7261C17.8339 20.5383 17.7777 20.3123 17.7496 20.0682C17.7216 19.824 17.7225 19.5691 17.7525 19.3259C17.7824 19.0828 17.8404 18.8588 17.9213 18.6737C18.0022 18.4885 18.1036 18.348 18.2164 18.2644C18.4852 18.0687 18.7589 17.9039 19.0362 17.7708C20.0465 17.3015 20.924 17.4226 21.6341 18.1372C22.251 18.782 22.7441 19.8506 23.0312 21.1652C23.261 22.2112 23.405 23.3311 23.457 24.4778C23.5511 25.9914 23.4846 27.53 23.2622 28.9834C22.9891 30.6361 22.4448 32.0313 21.7265 32.9197C21.1997 33.5557 20.615 33.9519 20.0104 34.0825C19.8563 34.1225 19.7011 34.1438 19.5457 34.146ZM16.9839 24.8956C16.811 25.5325 16.6933 26.2286 16.6361 26.9516C16.6049 27.5395 16.6244 28.1344 16.6938 28.7078C16.775 29.4071 16.923 30.0646 17.1289 30.6402C17.3348 31.2159 17.5943 31.6978 17.8917 32.0568C18.5218 32.7734 19.2427 33.0602 19.9542 32.8773C20.4782 32.7642 20.9851 32.4218 21.4422 31.872C22.0432 31.128 22.4981 29.9589 22.7253 28.5746C22.92 27.2914 22.9767 25.9336 22.8912 24.5989C22.8467 23.5868 22.7208 22.5978 22.5189 21.6739C22.2875 20.6126 21.891 19.7477 21.3946 19.2212C20.7985 18.6156 20.048 18.5339 19.1647 18.9426C18.9084 19.0657 18.6555 19.2173 18.407 19.3968C18.3709 19.4218 18.3411 19.4755 18.3238 19.5463C18.3065 19.6172 18.3032 19.6994 18.3146 19.7753C18.3237 19.846 18.3447 19.9073 18.3738 19.9479C18.3897 19.9693 18.4078 19.9825 18.4267 19.9861C18.4455 19.9898 18.4645 19.984 18.482 19.9691L18.5729 19.9055L19.2773 19.5089L19.1824 20.7261L18.7865 21.0289C17.8484 21.9676 17.2884 23.6511 16.9839 24.8956ZM19.5717 32.3353C19.2527 32.3368 18.9352 32.2471 18.6278 32.0689C18.301 31.8905 17.9966 31.5653 17.7357 31.1156C17.4747 30.666 17.2635 30.1027 17.1167 29.4648C16.8906 28.5026 16.8438 27.398 16.9853 26.3672C17.1275 25.5132 17.3283 24.7074 17.5814 23.9751C17.8492 23.1565 18.1928 22.4594 18.5917 21.9252C18.6409 21.862 18.938 21.5492 18.9884 21.4948L19.107 21.3983C19.1632 21.3529 19.2195 21.3105 19.2787 21.2711C19.3519 21.2199 19.3936 21.0505 19.3711 20.8957C19.3413 20.6532 19.2626 20.681 19.1824 20.7261L19.2773 19.5089C19.8017 19.2285 20.3504 19.215 20.8779 19.4695C21.3803 19.745 21.815 20.4064 22.096 21.3226C22.3406 22.1537 22.5012 23.0812 22.5679 24.0478C22.6474 25.024 22.661 26.0189 22.6084 27.0031C22.5373 28.4788 22.2039 29.8443 21.6745 30.8274C21.343 31.391 20.9591 31.8034 20.5473 32.0386C20.455 32.0931 20.3626 32.1446 20.2674 32.1839C20.0969 32.2628 19.9236 32.3115 19.7492 32.3293C19.6915 32.3323 19.6309 32.3353 19.5717 32.3353ZM18.8919 22.9547C18.5584 23.4013 18.2717 23.9854 18.049 24.6715C17.8281 25.3071 17.6526 26.0068 17.528 26.7487C17.4333 27.4838 17.4708 28.2663 17.6334 28.947C17.7453 29.4274 17.9056 29.8511 18.1032 30.1888C18.3008 30.5266 18.531 30.7703 18.7779 30.9031C19.0832 31.078 19.3999 31.1495 19.716 31.1151C19.8594 31.1034 20.0019 31.0639 20.1418 30.997C20.5643 30.8326 20.9609 30.452 21.2964 29.8887C21.7169 29.1049 21.9796 28.0148 22.031 26.8396C22.0764 25.9732 22.0643 25.0979 21.995 24.2385C21.9398 23.4373 21.8077 22.6678 21.6067 21.9767C21.4045 21.3144 21.0906 20.8364 20.7278 20.6383C20.4607 20.5013 20.1844 20.4614 19.9109 20.5202L19.9195 20.5747C19.9557 20.8498 19.9546 21.1406 19.9163 21.4144C19.8797 21.6771 19.8102 21.9142 19.7153 22.1014C19.7072 22.1173 19.6981 22.1307 19.6884 22.1419C19.5859 22.2603 19.2966 22.5381 19.1893 22.6362C19.0953 22.7221 18.9884 22.8303 18.8919 22.9547Z" fill="url(#paint11_linear_574_1349)"/>
<path d="M31.1005 33.495C31.0008 33.4967 30.9021 33.4535 30.8109 33.3683C30.7198 33.2832 30.6385 33.1581 30.5723 33.0015C30.4808 32.7868 30.4204 32.5219 30.3982 32.2378C30.3759 31.9537 30.3927 31.6621 30.4467 31.3974C30.5006 31.1326 30.5894 30.9056 30.7027 30.7429C30.8159 30.5803 30.9489 30.4888 31.0861 30.4792L31.3748 30.458C32.3621 30.424 33.3454 30.1856 34.3104 29.7464C35.504 29.1408 36.4407 28.1144 37.093 26.6882C37.467 25.9065 37.7569 24.966 37.9431 23.9297C38.0167 23.4664 38.0268 23.0879 37.9706 22.8881C37.8823 22.646 37.7586 22.4715 37.6184 22.3915C37.401 22.2382 37.1748 22.1465 36.9458 22.119C36.0673 21.9722 35.2152 22.6068 34.6185 23.2233C34.534 23.3106 34.4466 23.3842 34.3559 23.4373C34.2576 23.4949 34.1557 23.5397 34.0548 23.5067C33.9104 23.4595 33.7743 23.3257 33.6638 23.1182C33.5475 22.8968 33.4693 22.6008 33.4415 22.2764C33.4101 21.8991 33.4506 21.5109 33.5541 21.1955C33.8745 20.2053 34.192 19.2031 34.4995 18.219C35.5906 14.7247 36.6514 11.1032 37.6501 7.45455C37.7011 7.26706 37.7709 7.10501 37.8546 6.97955C37.9383 6.85409 38.034 6.76821 38.1351 6.72784C38.3064 6.66384 38.4829 6.73025 38.633 6.9151C38.783 7.09996 38.8966 7.39112 38.9534 7.73615C38.9867 7.93867 38.9988 8.15387 38.9888 8.36707C38.9789 8.58027 38.9471 8.78645 38.8957 8.97156C38.607 10.0283 38.3184 11.0911 38.0297 12.0904C37.3514 14.4734 36.6413 16.8685 35.9124 19.2212C36.3775 19.0636 36.8509 19.0473 37.3182 19.1728C37.7108 19.2682 38.0926 19.5048 38.4468 19.8722C38.8735 20.3128 39.2021 21.0835 39.3633 22.0221C39.5307 23.0455 39.4745 24.1962 39.1916 25.5406C38.8911 26.9439 38.458 28.2047 37.9186 29.2468C37.0295 30.9818 35.8244 32.187 34.3393 32.8319C33.2829 33.2404 32.2121 33.4622 31.1381 33.495H31.1005ZM36.6875 20.8775C36.7885 20.8775 36.8895 20.8775 36.992 20.9017C37.2727 20.94 37.5497 21.055 37.8161 21.2439C38.0814 21.4151 38.3107 21.7721 38.4656 22.2552C38.6099 22.7791 38.6215 23.4664 38.4887 24.3021C38.2782 25.5172 37.9443 26.6217 37.5102 27.539C36.7885 29.1227 35.7551 30.2642 34.4518 30.9243C33.4495 31.3832 32.428 31.6317 31.4022 31.6662L31.1063 31.6904C31.0696 31.695 31.035 31.7289 31.0098 31.7852C30.9846 31.8415 30.9706 31.9159 30.9706 31.9932C30.9699 32.066 30.9817 32.1369 31.0038 32.193C31.0164 32.2233 31.0323 32.2468 31.0502 32.2616C31.068 32.2763 31.0872 32.2819 31.1063 32.2778C32.1483 32.246 33.1872 32.0323 34.2123 31.6389C35.5935 31.0333 36.7048 29.9342 37.5159 28.3536C37.9979 27.4244 38.3848 26.2994 38.6532 25.047C38.8741 23.9933 38.9246 23.1303 38.8077 22.4097C38.6953 21.7623 38.4654 21.2344 38.1683 20.9411C37.8741 20.6378 37.5573 20.4432 37.2316 20.3658C36.6016 20.2113 35.9632 20.3277 35.3553 20.7079L34.6106 21.147L35.0436 19.7905C35.9096 17.0653 36.7423 14.2523 37.5347 11.4636C37.8233 10.4553 38.112 9.41364 38.4007 8.36294C38.4103 8.32745 38.4164 8.28822 38.4187 8.24763C38.4209 8.20704 38.4192 8.16593 38.4136 8.12676C38.4007 8.05753 38.3767 7.99979 38.3458 7.96325C38.3154 7.92572 38.2798 7.91079 38.2448 7.92085C38.2258 7.92922 38.2079 7.94633 38.1924 7.97094C38.1769 7.99555 38.1643 8.02705 38.1553 8.06317C37.145 11.73 36.0842 15.3727 34.9873 18.8851C34.6784 19.8753 34.358 20.8836 34.0362 21.8767C34.0174 21.9332 34.0097 22.0025 34.0145 22.0705C34.0209 22.1311 34.036 22.186 34.0578 22.228C34.0809 22.2719 34.1096 22.3007 34.1403 22.3109C34.1711 22.3211 34.2026 22.3123 34.231 22.2855C34.8256 21.6315 35.7205 20.8775 36.6875 20.8775Z" fill="url(#paint12_linear_574_1349)"/>
<path d="M31.1005 33.495C31.0008 33.4967 30.9021 33.4535 30.8109 33.3683C30.7198 33.2832 30.6385 33.1581 30.5723 33.0015C30.4808 32.7868 30.4204 32.5219 30.3982 32.2378C30.3759 31.9537 30.3927 31.6621 30.4467 31.3974C30.5006 31.1326 30.5894 30.9056 30.7027 30.7429C30.8159 30.5803 30.9489 30.4888 31.0861 30.4792L31.3748 30.458C32.3621 30.424 33.3454 30.1856 34.3104 29.7464C35.504 29.1408 36.4407 28.1144 37.093 26.6882C37.467 25.9065 37.7569 24.966 37.9431 23.9297C38.0167 23.4664 38.0268 23.0879 37.9706 22.8881C37.8823 22.646 37.7586 22.4715 37.6184 22.3915C37.401 22.2382 37.1748 22.1465 36.9458 22.119C36.0673 21.9722 35.2152 22.6068 34.6185 23.2233C34.534 23.3106 34.4466 23.3842 34.3559 23.4373C34.2576 23.4949 34.1557 23.5397 34.0548 23.5067C33.9104 23.4595 33.7743 23.3257 33.6638 23.1182C33.5475 22.8968 33.4693 22.6008 33.4415 22.2764C33.4101 21.8991 33.4506 21.5109 33.5541 21.1955C33.8745 20.2053 34.192 19.2031 34.4995 18.219C35.5906 14.7247 36.6514 11.1032 37.6501 7.45455C37.7011 7.26706 37.7709 7.10501 37.8546 6.97955C37.9383 6.85409 38.034 6.76821 38.1351 6.72784C38.3064 6.66384 38.4829 6.73025 38.633 6.9151C38.783 7.09996 38.8966 7.39112 38.9534 7.73615C38.9867 7.93867 38.9988 8.15387 38.9888 8.36707C38.9789 8.58027 38.9471 8.78645 38.8957 8.97156C38.607 10.0283 38.3184 11.0911 38.0297 12.0904C37.3514 14.4734 36.6413 16.8685 35.9124 19.2212C36.3775 19.0636 36.8509 19.0473 37.3182 19.1728C37.7108 19.2682 38.0926 19.5048 38.4468 19.8722C38.8735 20.3128 39.2021 21.0835 39.3633 22.0221C39.5307 23.0455 39.4745 24.1962 39.1916 25.5406C38.8911 26.9439 38.458 28.2047 37.9186 29.2468C37.0295 30.9818 35.8244 32.187 34.3393 32.8319C33.2829 33.2404 32.2121 33.4622 31.1381 33.495H31.1005ZM36.6875 20.8775C36.7885 20.8775 36.8895 20.8775 36.992 20.9017C37.2727 20.94 37.5497 21.055 37.8161 21.2439C38.0814 21.4151 38.3107 21.7721 38.4656 22.2552C38.6099 22.7791 38.6215 23.4664 38.4887 24.3021C38.2782 25.5172 37.9443 26.6217 37.5102 27.539C36.7885 29.1227 35.7551 30.2642 34.4518 30.9243C33.4495 31.3832 32.428 31.6317 31.4022 31.6662L31.1063 31.6904C31.0696 31.695 31.035 31.7289 31.0098 31.7852C30.9846 31.8415 30.9706 31.9159 30.9706 31.9932C30.9699 32.066 30.9817 32.1369 31.0038 32.193C31.0164 32.2233 31.0323 32.2468 31.0502 32.2616C31.068 32.2763 31.0872 32.2819 31.1063 32.2778C32.1483 32.246 33.1872 32.0323 34.2123 31.6389C35.5935 31.0333 36.7048 29.9342 37.5159 28.3536C37.9979 27.4244 38.3848 26.2994 38.6532 25.047C38.8741 23.9933 38.9246 23.1303 38.8077 22.4097C38.6953 21.7623 38.4654 21.2344 38.1683 20.9411C37.8741 20.6378 37.5573 20.4432 37.2316 20.3658C36.6016 20.2113 35.9632 20.3277 35.3553 20.7079L34.6106 21.147L35.0436 19.7905C35.9096 17.0653 36.7423 14.2523 37.5347 11.4636C37.8233 10.4553 38.112 9.41364 38.4007 8.36294C38.4103 8.32745 38.4164 8.28822 38.4187 8.24763C38.4209 8.20704 38.4192 8.16593 38.4136 8.12676C38.4007 8.05753 38.3767 7.99979 38.3458 7.96325C38.3154 7.92572 38.2798 7.91079 38.2448 7.92085C38.2258 7.92922 38.2079 7.94633 38.1924 7.97094C38.1769 7.99555 38.1643 8.02705 38.1553 8.06317C37.145 11.73 36.0842 15.3727 34.9873 18.8851C34.6784 19.8753 34.358 20.8836 34.0362 21.8767C34.0174 21.9332 34.0097 22.0025 34.0145 22.0705C34.0209 22.1311 34.036 22.186 34.0578 22.228C34.0809 22.2719 34.1096 22.3007 34.1403 22.3109C34.1711 22.3211 34.2026 22.3123 34.231 22.2855C34.8256 21.6315 35.7205 20.8775 36.6875 20.8775Z" fill="url(#paint13_linear_574_1349)"/>
<path d="M36.7595 13.4149C36.6599 13.4422 36.5576 13.4578 36.4617 13.3949C36.4032 13.3564 36.3471 13.3018 36.295 13.2319C36.1449 13.0311 36.0366 12.7184 35.9919 12.3568C35.9418 11.9839 35.9617 11.5847 36.0477 11.2417C36.1336 10.8986 36.2789 10.6378 36.4538 10.5128C36.9185 10.1797 37.3861 9.85271 37.8451 9.54083C39.4775 8.42956 41.1531 7.40006 42.8273 6.47653C42.9251 6.4243 43.0269 6.41564 43.1264 6.4511C43.2258 6.48657 43.3206 6.56537 43.4046 6.68243C43.546 6.88901 43.6482 7.19347 43.6933 7.54237C43.7404 7.89499 43.725 8.27151 43.65 8.60216C43.6051 8.79691 43.5406 8.9688 43.4608 9.10582C43.381 9.24284 43.288 9.34169 43.1881 9.39549C42.722 9.65286 42.2514 9.91932 41.791 10.1888C40.1832 11.1335 38.561 12.1873 36.969 13.3258C36.921 13.36 36.8716 13.3842 36.8213 13.398L36.7595 13.4149ZM43.0135 7.63927C43.0005 7.63629 42.9875 7.63629 42.9745 7.63927C41.3104 8.54766 39.6449 9.58019 38.0226 10.6824C37.5666 10.9852 37.1018 11.3182 36.64 11.6483C36.6039 11.6739 36.5741 11.7283 36.557 11.7998C36.54 11.8712 36.5371 11.9539 36.549 12.0298C36.5578 12.1 36.5783 12.1612 36.6068 12.2024C36.6228 12.2232 36.6409 12.2359 36.6597 12.2395C36.6785 12.2432 36.6974 12.2378 36.715 12.2236L36.9892 12.0268C38.5278 10.9337 40.0909 9.90721 41.6424 8.99882C42.1057 8.72631 42.5791 8.45682 43.0496 8.19944C43.0683 8.19053 43.0858 8.17282 43.1008 8.14764C43.1158 8.12247 43.1279 8.09048 43.1362 8.0541C43.15 7.98609 43.1525 7.91034 43.1433 7.83896C43.1342 7.76759 43.1139 7.70473 43.0857 7.66046C43.0631 7.63893 43.038 7.63157 43.0135 7.63927Z" fill="url(#paint14_linear_574_1349)"/>
<path d="M36.7595 13.4149C36.6599 13.4422 36.5576 13.4578 36.4617 13.3949C36.4032 13.3564 36.3471 13.3018 36.295 13.2319C36.1449 13.0311 36.0366 12.7184 35.9919 12.3568C35.9418 11.9839 35.9617 11.5847 36.0477 11.2417C36.1336 10.8986 36.2789 10.6378 36.4538 10.5128C36.9185 10.1797 37.3861 9.85271 37.8451 9.54083C39.4775 8.42956 41.1531 7.40006 42.8273 6.47653C42.9251 6.4243 43.0269 6.41564 43.1264 6.4511C43.2258 6.48657 43.3206 6.56537 43.4046 6.68243C43.546 6.88901 43.6482 7.19347 43.6933 7.54237C43.7404 7.89499 43.725 8.27151 43.65 8.60216C43.6051 8.79691 43.5406 8.9688 43.4608 9.10582C43.381 9.24284 43.288 9.34169 43.1881 9.39549C42.722 9.65286 42.2514 9.91932 41.791 10.1888C40.1832 11.1335 38.561 12.1873 36.969 13.3258C36.921 13.36 36.8716 13.3842 36.8213 13.398L36.7595 13.4149ZM43.0135 7.63927C43.0005 7.63629 42.9875 7.63629 42.9745 7.63927C41.3104 8.54766 39.6449 9.58019 38.0226 10.6824C37.5666 10.9852 37.1018 11.3182 36.64 11.6483C36.6039 11.6739 36.5741 11.7283 36.557 11.7998C36.54 11.8712 36.5371 11.9539 36.549 12.0298C36.5578 12.1 36.5783 12.1612 36.6068 12.2024C36.6228 12.2232 36.6409 12.2359 36.6597 12.2395C36.6785 12.2432 36.6974 12.2378 36.715 12.2236L36.9892 12.0268C38.5278 10.9337 40.0909 9.90721 41.6424 8.99882C42.1057 8.72631 42.5791 8.45682 43.0496 8.19944C43.0683 8.19053 43.0858 8.17282 43.1008 8.14764C43.1158 8.12247 43.1279 8.09048 43.1362 8.0541C43.15 7.98609 43.1525 7.91034 43.1433 7.83896C43.1342 7.76759 43.1139 7.70473 43.0857 7.66046C43.0631 7.63893 43.038 7.63157 43.0135 7.63927Z" fill="url(#paint15_linear_574_1349)"/>
<path d="M40.4473 25.3924C40.2817 25.3889 40.1217 25.266 39.9941 25.0442C39.9125 24.9037 39.8465 24.7273 39.8008 24.5274C39.7552 24.3276 39.731 24.1091 39.73 23.8875C39.7228 22.3735 40.0663 21.0957 40.342 20.0632L40.4228 19.7604L40.4358 19.712L40.5599 19.2366C41.5893 15.3647 42.7172 11.6117 43.9386 7.99374L44.0231 7.74649C44.0764 7.59074 44.1368 7.44643 44.2036 7.31567C44.2807 7.16463 44.3641 7.02145 44.4646 6.95399C44.5378 6.90484 44.6145 6.87952 44.692 6.87952C44.8227 6.87952 44.9511 6.95154 45.0644 7.08837C45.2209 7.27789 45.3378 7.58367 45.392 7.94529C45.4226 8.1614 45.429 8.3894 45.4107 8.61155C45.3925 8.8337 45.35 9.04401 45.2867 9.22612C44.9273 10.2798 44.5737 11.3457 44.2374 12.4025L44.2273 12.4358C43.6139 14.3615 43.0193 16.3479 42.4622 18.3373C42.1822 19.3365 41.9065 20.3569 41.6409 21.3652L41.6265 21.4228C42.9303 20.5965 44.2761 20.0964 45.6359 19.933C45.7413 19.9187 45.8469 19.9542 45.9448 20.037C46.0427 20.1199 46.1305 20.2478 46.2017 20.4114C46.2943 20.6238 46.3562 20.8871 46.38 21.1705C46.4038 21.454 46.3886 21.7458 46.3362 22.0118C46.2838 22.2778 46.1963 22.5069 46.0841 22.6724C45.9718 22.8378 45.8394 22.9327 45.7023 22.9458C43.9841 23.1557 42.2936 23.9503 40.697 25.2986C40.6175 25.3638 40.5327 25.3957 40.4473 25.3924ZM40.9222 20.3418L40.8414 20.6446C40.5859 21.6014 40.2972 22.6824 40.303 23.8694C40.304 23.9148 40.3095 23.9593 40.3192 24C40.3289 24.0407 40.3425 24.0767 40.3593 24.1055C40.3757 24.1362 40.3958 24.1569 40.4174 24.1654C40.4391 24.174 40.4614 24.17 40.482 24.154C42.137 22.7617 43.8889 21.9436 45.6691 21.7316C45.7061 21.7277 45.741 21.6941 45.7666 21.6377C45.7921 21.5814 45.8063 21.5066 45.8062 21.4288C45.807 21.356 45.7952 21.285 45.7731 21.229C45.7601 21.1998 45.7441 21.1772 45.7263 21.1631C45.7086 21.1489 45.6895 21.1435 45.6706 21.1472C44.1245 21.3331 42.5983 21.969 41.1358 23.0367L40.5036 23.4969L40.7764 22.2161C40.8572 21.8376 40.9554 21.4682 41.0651 21.0745L41.1416 20.7717C41.4086 19.7513 41.6871 18.7218 41.97 17.7135C42.5329 15.6999 43.1333 13.6954 43.7539 11.7484C44.096 10.6735 44.4568 9.58342 44.8234 8.50849C44.8348 8.47762 44.8428 8.44162 44.8465 8.40328C44.8503 8.36494 44.8498 8.3253 44.845 8.28745C44.8335 8.21825 44.8104 8.16016 44.7801 8.12394C44.7472 8.08407 44.7086 8.07068 44.6714 8.08629C44.6342 8.1019 44.601 8.14543 44.578 8.20872C43.2491 12.1027 42.0303 16.1571 40.928 20.3509L40.9222 20.3418Z" fill="url(#paint16_linear_574_1349)"/>
<path d="M40.4473 25.3924C40.2817 25.3889 40.1217 25.266 39.9941 25.0442C39.9125 24.9037 39.8465 24.7273 39.8008 24.5274C39.7552 24.3276 39.731 24.1091 39.73 23.8875C39.7228 22.3735 40.0663 21.0957 40.342 20.0632L40.4228 19.7604L40.4358 19.712L40.5599 19.2366C41.5893 15.3647 42.7172 11.6117 43.9386 7.99374L44.0231 7.74649C44.0764 7.59074 44.1368 7.44643 44.2036 7.31567C44.2807 7.16463 44.3641 7.02145 44.4646 6.95399C44.5378 6.90484 44.6145 6.87952 44.692 6.87952C44.8227 6.87952 44.9511 6.95154 45.0644 7.08837C45.2209 7.27789 45.3378 7.58367 45.392 7.94529C45.4226 8.1614 45.429 8.3894 45.4107 8.61155C45.3925 8.8337 45.35 9.04401 45.2867 9.22612C44.9273 10.2798 44.5737 11.3457 44.2374 12.4025L44.2273 12.4358C43.6139 14.3615 43.0193 16.3479 42.4622 18.3373C42.1822 19.3365 41.9065 20.3569 41.6409 21.3652L41.6265 21.4228C42.9303 20.5965 44.2761 20.0964 45.6359 19.933C45.7413 19.9187 45.8469 19.9542 45.9448 20.037C46.0427 20.1199 46.1305 20.2478 46.2017 20.4114C46.2943 20.6238 46.3562 20.8871 46.38 21.1705C46.4038 21.454 46.3886 21.7458 46.3362 22.0118C46.2838 22.2778 46.1963 22.5069 46.0841 22.6724C45.9718 22.8378 45.8394 22.9327 45.7023 22.9458C43.9841 23.1557 42.2936 23.9503 40.697 25.2986C40.6175 25.3638 40.5327 25.3957 40.4473 25.3924ZM40.9222 20.3418L40.8414 20.6446C40.5859 21.6014 40.2972 22.6824 40.303 23.8694C40.304 23.9148 40.3095 23.9593 40.3192 24C40.3289 24.0407 40.3425 24.0767 40.3593 24.1055C40.3757 24.1362 40.3958 24.1569 40.4174 24.1654C40.4391 24.174 40.4614 24.17 40.482 24.154C42.137 22.7617 43.8889 21.9436 45.6691 21.7316C45.7061 21.7277 45.741 21.6941 45.7666 21.6377C45.7921 21.5814 45.8063 21.5066 45.8062 21.4288C45.807 21.356 45.7952 21.285 45.7731 21.229C45.7601 21.1998 45.7441 21.1772 45.7263 21.1631C45.7086 21.1489 45.6895 21.1435 45.6706 21.1472C44.1245 21.3331 42.5983 21.969 41.1358 23.0367L40.5036 23.4969L40.7764 22.2161C40.8572 21.8376 40.9554 21.4682 41.0651 21.0745L41.1416 20.7717C41.4086 19.7513 41.6871 18.7218 41.97 17.7135C42.5329 15.6999 43.1333 13.6954 43.7539 11.7484C44.096 10.6735 44.4568 9.58342 44.8234 8.50849C44.8348 8.47762 44.8428 8.44162 44.8465 8.40328C44.8503 8.36494 44.8498 8.3253 44.845 8.28745C44.8335 8.21825 44.8104 8.16016 44.7801 8.12394C44.7472 8.08407 44.7086 8.07068 44.6714 8.08629C44.6342 8.1019 44.601 8.14543 44.578 8.20872C43.2491 12.1027 42.0303 16.1571 40.928 20.3509L40.9222 20.3418Z" fill="url(#paint17_linear_574_1349)"/>
<path d="M42.3466 32.9713C42.2243 32.9706 42.1039 32.9053 41.9967 32.7816C41.8895 32.6579 41.7988 32.4796 41.733 32.2631C41.6672 32.0467 41.6284 31.799 41.6201 31.5429C41.6118 31.2867 41.6343 31.0303 41.6856 30.7972C42.0623 29.0925 42.4563 27.3938 42.859 25.7466C43.572 22.8276 44.3441 19.9178 45.1596 17.1018C45.975 14.2857 46.8295 11.4909 47.7358 8.76576C47.8142 8.53408 47.9218 8.35269 48.0465 8.24186C48.1712 8.13103 48.3081 8.09513 48.442 8.13816C48.5758 8.1812 48.7014 8.30148 48.8045 8.48557C48.9077 8.66965 48.9844 8.91029 49.0261 9.1806C49.0574 9.39533 49.0647 9.62229 49.0474 9.84388C49.0301 10.0655 48.9888 10.2757 48.9265 10.4584C48.4199 11.9724 47.9263 13.5136 47.4573 15.0427C46.6231 17.7679 45.8249 20.5657 45.0816 23.3939C44.3383 26.222 43.6384 29.147 42.9773 32.1114C42.9327 32.3165 42.8661 32.4973 42.7828 32.6396C42.6994 32.7819 42.6015 32.882 42.4967 32.932C42.4475 32.9557 42.3972 32.9689 42.3466 32.9713ZM48.3232 9.35319C48.3005 9.35231 48.278 9.36385 48.258 9.38667C48.238 9.4095 48.2212 9.44283 48.2092 9.48339C47.3101 12.1753 46.447 14.9549 45.646 17.7437C44.8449 20.5324 44.08 23.4181 43.3728 26.3128C42.9744 27.9479 42.5819 29.6436 42.2095 31.3211C42.1942 31.3944 42.1923 31.4771 42.2043 31.5531C42.2163 31.6292 42.2413 31.6932 42.2745 31.7329C42.3041 31.7691 42.3389 31.7819 42.3726 31.7692C42.3908 31.7601 42.4077 31.7418 42.4217 31.7159C42.4358 31.6901 42.4467 31.6575 42.4534 31.6208C43.113 28.6413 43.8274 25.683 44.5765 22.8397C45.3255 19.9965 46.1309 17.1532 46.9709 14.4159C47.4443 12.8747 47.9437 11.3183 48.4531 9.79224C48.4647 9.76092 48.4727 9.7244 48.4765 9.68553C48.4802 9.64666 48.4797 9.6065 48.4748 9.56817C48.463 9.5001 48.4399 9.44317 48.4098 9.40769C48.3839 9.371 48.3543 9.34718 48.3232 9.33805V9.35319Z" fill="url(#paint18_linear_574_1349)"/>
<path d="M42.3466 32.9713C42.2243 32.9706 42.1039 32.9053 41.9967 32.7816C41.8895 32.6579 41.7988 32.4796 41.733 32.2631C41.6672 32.0467 41.6284 31.799 41.6201 31.5429C41.6118 31.2867 41.6343 31.0303 41.6856 30.7972C42.0623 29.0925 42.4563 27.3938 42.859 25.7466C43.572 22.8276 44.3441 19.9178 45.1596 17.1018C45.975 14.2857 46.8295 11.4909 47.7358 8.76576C47.8142 8.53408 47.9218 8.35269 48.0465 8.24186C48.1712 8.13103 48.3081 8.09513 48.442 8.13816C48.5758 8.1812 48.7014 8.30148 48.8045 8.48557C48.9077 8.66965 48.9844 8.91029 49.0261 9.1806C49.0574 9.39533 49.0647 9.62229 49.0474 9.84388C49.0301 10.0655 48.9888 10.2757 48.9265 10.4584C48.4199 11.9724 47.9263 13.5136 47.4573 15.0427C46.6231 17.7679 45.8249 20.5657 45.0816 23.3939C44.3383 26.222 43.6384 29.147 42.9773 32.1114C42.9327 32.3165 42.8661 32.4973 42.7828 32.6396C42.6994 32.7819 42.6015 32.882 42.4967 32.932C42.4475 32.9557 42.3972 32.9689 42.3466 32.9713ZM48.3232 9.35319C48.3005 9.35231 48.278 9.36385 48.258 9.38667C48.238 9.4095 48.2212 9.44283 48.2092 9.48339C47.3101 12.1753 46.447 14.9549 45.646 17.7437C44.8449 20.5324 44.08 23.4181 43.3728 26.3128C42.9744 27.9479 42.5819 29.6436 42.2095 31.3211C42.1942 31.3944 42.1923 31.4771 42.2043 31.5531C42.2163 31.6292 42.2413 31.6932 42.2745 31.7329C42.3041 31.7691 42.3389 31.7819 42.3726 31.7692C42.3908 31.7601 42.4077 31.7418 42.4217 31.7159C42.4358 31.6901 42.4467 31.6575 42.4534 31.6208C43.113 28.6413 43.8274 25.683 44.5765 22.8397C45.3255 19.9965 46.1309 17.1532 46.9709 14.4159C47.4443 12.8747 47.9437 11.3183 48.4531 9.79224C48.4647 9.76092 48.4727 9.7244 48.4765 9.68553C48.4802 9.64666 48.4797 9.6065 48.4748 9.56817C48.463 9.5001 48.4399 9.44317 48.4098 9.40769C48.3839 9.371 48.3543 9.34718 48.3232 9.33805V9.35319Z" fill="url(#paint19_linear_574_1349)"/>
</g>
<defs>
<linearGradient id="paint0_linear_574_1349" x1="7.51564" y1="2.25" x2="7.51564" y2="33.596" gradientUnits="userSpaceOnUse">
<stop stop-color="#05BBAF"/>
<stop offset="0.651042" stop-color="#0BBE93"/>
<stop offset="0.958333" stop-color="#FF785A"/>
</linearGradient>
<linearGradient id="paint1_linear_574_1349" x1="7.51564" y1="2.25" x2="7.51564" y2="33.596" gradientUnits="userSpaceOnUse">
<stop stop-color="#06CEC1"/>
<stop offset="0.651042" stop-color="#19D3A7"/>
<stop offset="0.958333" stop-color="#FF785A"/>
</linearGradient>
<linearGradient id="paint2_linear_574_1349" x1="27.8067" y1="12.186" x2="27.8067" y2="33.954" gradientUnits="userSpaceOnUse">
<stop stop-color="#05BBAF"/>
<stop offset="0.651042" stop-color="#0BBE93"/>
<stop offset="0.958333" stop-color="#FF785A"/>
</linearGradient>
<linearGradient id="paint3_linear_574_1349" x1="27.8067" y1="12.186" x2="27.8067" y2="33.954" gradientUnits="userSpaceOnUse">
<stop stop-color="#06CEC1"/>
<stop offset="0.651042" stop-color="#19D3A7"/>
<stop offset="0.958333" stop-color="#FF785A"/>
</linearGradient>
<linearGradient id="paint4_linear_574_1349" x1="13.7519" y1="17.2041" x2="13.7519" y2="33.9808" gradientUnits="userSpaceOnUse">
<stop stop-color="#05BBAF"/>
<stop offset="0.651042" stop-color="#0BBE93"/>
<stop offset="0.958333" stop-color="#FF785A"/>
</linearGradient>
<linearGradient id="paint5_linear_574_1349" x1="13.7519" y1="17.2041" x2="13.7519" y2="33.9808" gradientUnits="userSpaceOnUse">
<stop stop-color="#06CEC1"/>
<stop offset="0.651042" stop-color="#19D3A7"/>
<stop offset="0.958333" stop-color="#FF785A"/>
</linearGradient>
<linearGradient id="paint6_linear_574_1349" x1="12.1908" y1="21.5261" x2="12.1908" y2="26.8306" gradientUnits="userSpaceOnUse">
<stop stop-color="#05BBAF"/>
<stop offset="0.651042" stop-color="#0BBE93"/>
<stop offset="0.958333" stop-color="#FF785A"/>
</linearGradient>
<linearGradient id="paint7_linear_574_1349" x1="12.1908" y1="21.5261" x2="12.1908" y2="26.8306" gradientUnits="userSpaceOnUse">
<stop stop-color="#06CEC1"/>
<stop offset="0.651042" stop-color="#19D3A7"/>
<stop offset="0.958333" stop-color="#FF785A"/>
</linearGradient>
<linearGradient id="paint8_linear_574_1349" x1="12.155" y1="24.7229" x2="12.155" y2="29.2258" gradientUnits="userSpaceOnUse">
<stop stop-color="#05BBAF"/>
<stop offset="0.651042" stop-color="#0BBE93"/>
<stop offset="0.958333" stop-color="#FF785A"/>
</linearGradient>
<linearGradient id="paint9_linear_574_1349" x1="12.155" y1="24.7229" x2="12.155" y2="29.2258" gradientUnits="userSpaceOnUse">
<stop stop-color="#06CEC1"/>
<stop offset="0.651042" stop-color="#19D3A7"/>
<stop offset="0.958333" stop-color="#FF785A"/>
</linearGradient>
<linearGradient id="paint10_linear_574_1349" x1="19.7714" y1="17.4912" x2="19.7714" y2="34.1464" gradientUnits="userSpaceOnUse">
<stop stop-color="#05BBAF"/>
<stop offset="0.651042" stop-color="#0BBE93"/>
<stop offset="0.958333" stop-color="#FF785A"/>
</linearGradient>
<linearGradient id="paint11_linear_574_1349" x1="19.7714" y1="17.4912" x2="19.7714" y2="34.1464" gradientUnits="userSpaceOnUse">
<stop stop-color="#06CEC1"/>
<stop offset="0.651042" stop-color="#19D3A7"/>
<stop offset="0.958333" stop-color="#FF785A"/>
</linearGradient>
<linearGradient id="paint12_linear_574_1349" x1="34.9229" y1="6.7041" x2="34.9229" y2="33.4951" gradientUnits="userSpaceOnUse">
<stop stop-color="#05BBAF"/>
<stop offset="0.651042" stop-color="#0BBE93"/>
<stop offset="0.958333" stop-color="#FF785A"/>
</linearGradient>
<linearGradient id="paint13_linear_574_1349" x1="34.9229" y1="6.7041" x2="34.9229" y2="33.4951" gradientUnits="userSpaceOnUse">
<stop stop-color="#06CEC1"/>
<stop offset="0.651042" stop-color="#19D3A7"/>
<stop offset="0.958333" stop-color="#FF785A"/>
</linearGradient>
<linearGradient id="paint14_linear_574_1349" x1="39.8425" y1="6.42969" x2="39.8425" y2="13.4387" gradientUnits="userSpaceOnUse">
<stop stop-color="#05BBAF"/>
<stop offset="0.651042" stop-color="#0BBE93"/>
<stop offset="0.958333" stop-color="#FF785A"/>
</linearGradient>
<linearGradient id="paint15_linear_574_1349" x1="39.8425" y1="6.42969" x2="39.8425" y2="13.4387" gradientUnits="userSpaceOnUse">
<stop stop-color="#06CEC1"/>
<stop offset="0.651042" stop-color="#19D3A7"/>
<stop offset="0.958333" stop-color="#FF785A"/>
</linearGradient>
<linearGradient id="paint16_linear_574_1349" x1="43.0604" y1="6.87952" x2="43.0604" y2="25.3927" gradientUnits="userSpaceOnUse">
<stop stop-color="#05BBAF"/>
<stop offset="0.651042" stop-color="#0BBE93"/>
<stop offset="0.958333" stop-color="#FF785A"/>
</linearGradient>
<linearGradient id="paint17_linear_574_1349" x1="43.0604" y1="6.87952" x2="43.0604" y2="25.3927" gradientUnits="userSpaceOnUse">
<stop stop-color="#06CEC1"/>
<stop offset="0.651042" stop-color="#19D3A7"/>
<stop offset="0.958333" stop-color="#FF785A"/>
</linearGradient>
<linearGradient id="paint18_linear_574_1349" x1="45.3375" y1="8.12048" x2="45.3375" y2="32.9713" gradientUnits="userSpaceOnUse">
<stop stop-color="#05BBAF"/>
<stop offset="0.651042" stop-color="#0BBE93"/>
<stop offset="0.958333" stop-color="#FF785A"/>
</linearGradient>
<linearGradient id="paint19_linear_574_1349" x1="45.3375" y1="8.12048" x2="45.3375" y2="32.9713" gradientUnits="userSpaceOnUse">
<stop stop-color="#06CEC1"/>
<stop offset="0.651042" stop-color="#19D3A7"/>
<stop offset="0.958333" stop-color="#FF785A"/>
</linearGradient>
<clipPath id="clip0_574_1349">
<rect width="49.3333" height="36" fill="white"/>
</clipPath>
</defs>
</svg>