<svg width="48" height="34" viewBox="0 0 48 34" fill="none" xmlns="http://www.w3.org/2000/svg">
<g clip-path="url(#clip0_202_2797)">
<path d="M21.9137 4.20428L12.7253 7.64993L26.3165 14.9241V29.6637L35.122 26.2181V13.2969L37.132 12.5312L21.9137 4.20428ZM33.2078 14.2541V14.7326V24.8781L28.3264 26.7924V16.5512V16.0726V13.7755L17.511 8.03277L21.818 6.40567L31.4849 11.6698L33.3035 12.5312L33.2078 14.2541Z" fill="white"/>
<path d="M42.7789 10.3295L47.4688 8.51099L31.9634 0.184021L0.952637 12.1481L5.64254 14.6366L0.952637 16.5508L5.64254 19.0393L0.952637 20.9536L5.64254 23.4421L0.952637 25.2606L16.5537 33.5876L47.5645 21.6236L42.8746 19.135L47.5645 17.3165L42.8746 14.828L47.5645 13.0095L42.7789 10.3295ZM40.6732 15.498L43.3532 16.9337L33.7819 20.6664V22.5807L40.7689 19.9007L43.4489 21.3364L33.8776 25.0692V26.792H29.3792L16.7452 31.6733L5.25969 25.5478L7.84392 24.5906L16.6494 29.2805L28.1349 24.7821V22.8678L16.7452 27.2706L5.25969 21.145L7.84392 20.1879L16.6494 24.8778L28.1349 20.3793V18.4651L16.7452 22.8678L5.25969 16.7422L7.84392 15.7851L16.6494 20.475L28.1349 16.0723V15.8808V14.2537L16.8409 18.6565L5.3554 12.5309L31.772 2.09827L43.2574 8.22385L33.2077 12.1481H33.3034V13.9666L40.5775 11.0952L43.2574 12.5309L33.6862 16.2637V18.1779L40.6732 15.498Z" fill="white"/>
</g>
<defs>
<clipPath id="clip0_202_2797">
<rect width="46.5161" height="33.4036" fill="white" transform="translate(0.952637 0.184021)"/>
</clipPath>
</defs>
</svg>
