<svg width="40" height="39" viewBox="0 0 40 39" fill="none" xmlns="http://www.w3.org/2000/svg">
<path d="M39.1111 28.7963L36.4259 19.3445L29.5519 26.4334L32.1296 27.0778C29.4445 31.4815 24.6111 34.1667 19.4556 34.1667C11.2926 34.1667 4.52594 27.5075 4.52594 19.2371C4.52594 10.9667 11.1852 4.41486 19.4556 4.41486C26.8667 4.41486 32.9889 9.67782 34.1704 16.9815L38.2519 16.3371C37.6074 11.9334 35.3519 7.85189 31.9148 4.95189C28.3704 1.94449 23.9667 0.333374 19.4556 0.333374C16.8778 0.333374 14.4074 0.870411 12.0445 1.83708C9.7889 2.80374 7.74816 4.20004 6.02964 5.91856C4.31112 7.63708 2.91483 9.67782 1.94816 11.9334C0.981495 14.2963 0.444458 16.7667 0.444458 19.3445C0.444458 21.9223 0.981495 24.3926 1.94816 26.7556C2.91483 29.0112 4.31112 31.0519 6.02964 32.7704C7.74816 34.4889 9.7889 35.8852 12.0445 36.8519C14.4074 37.8186 16.8778 38.3556 19.4556 38.3556C23.2148 38.3556 26.7593 37.2815 29.8741 35.2408C32.5593 33.4149 34.8148 31.0519 36.3185 28.1519L39.1111 28.7963Z" fill="white"/>
</svg>
